<svg xmlns="http://www.w3.org/2000/svg" viewBox="0 0 20 20"><path d="M6.398 14.775c.48-.174.928-.4 1.337-.683.41-.282.797-.608 1.16-.982.363-.373.736-.76 1.118-1.16.346.4.71.787 1.092 1.16.382.374.787.7 1.214.982.427.282.886.51 1.378.683.49.173 1.017.26 1.582.26.727 0 1.387-.133 1.977-.397.59-.264 1.087-.627 1.487-1.092.4-.464.71-1.005.928-1.623.22-.617.328-1.28.328-1.99s-.11-1.365-.328-1.965c-.218-.602-.528-1.123-.928-1.57-.4-.445-.892-.794-1.473-1.05-.582-.255-1.237-.382-1.965-.382-.58 0-1.123.092-1.623.273-.5.18-.964.422-1.39.722-.43.3-.83.65-1.202 1.05s-.732.81-1.078 1.23c-.364-.438-.732-.85-1.104-1.243-.373-.392-.773-.738-1.2-1.038-.43-.3-.892-.54-1.392-.723-.5-.183-1.05-.274-1.65-.274-.728 0-1.385.133-1.965.396-.583.264-1.072.617-1.473 1.064-.4.446-.706.974-.914 1.583C.103 8.617 0 9.276 0 9.984c0 .71.108 1.374.326 1.992.22.62.537 1.15.955 1.597.42.446.92.8 1.5 1.064.585.264 1.247.396 1.994.396.6 0 1.142-.086 1.624-.26zM3.164 11.65c-.383-.418-.573-.955-.573-1.61 0-.6.187-1.14.562-1.623.372-.48.876-.723 1.515-.723.345 0 .69.078 1.035.232.346.154.678.35.997.587.316.237.62.496.91.777.292.283.547.542.766.778-.22.255-.464.515-.737.776-.274.266-.563.502-.873.71-.31.21-.637.382-.983.52-.345.136-.69.204-1.036.204-.675 0-1.202-.21-1.584-.628zm11.092.438c-.336-.127-.66-.296-.968-.505-.31-.21-.603-.445-.874-.71-.273-.263-.528-.53-.764-.805.218-.236.463-.495.736-.778.273-.28.56-.54.86-.776.3-.237.618-.433.954-.587.337-.154.688-.232 1.05-.232.674 0 1.205.227 1.597.683.392.454.587 1 .587 1.638 0 .637-.183 1.172-.546 1.608-.364.438-.882.655-1.555.655-.38-.002-.74-.065-1.077-.192z"/></svg>