<svg xmlns="http://www.w3.org/2000/svg" viewBox="0 0 20 20"><path d="M8.35 9.257c-.16-.12-.326-.217-.498-.293-.174-.078-.346-.117-.52-.117-.318 0-.57.12-.756.36-.188.243-.28.514-.28.813 0 .327.095.596.286.805s.455.314.79.314c.174 0 .346-.036.52-.105.173-.068.337-.154.49-.26.156-.103.302-.22.438-.353.137-.13.26-.262.368-.39-.11-.115-.237-.245-.382-.386-.145-.14-.298-.27-.457-.39zm4.277-.41c-.182 0-.358.04-.525.117-.168.076-.327.174-.478.293-.15.118-.293.248-.43.39-.137.14-.26.27-.368.388.118.137.245.272.382.402.137.133.28.25.438.355.153.104.314.188.483.252.167.064.348.096.538.096.337 0 .595-.11.777-.328.183-.22.272-.486.272-.805 0-.318-.1-.592-.293-.818-.195-.23-.46-.343-.797-.343zM10 .4C4.698.4.4 4.698.4 10s4.298 9.6 9.6 9.6 9.6-4.298 9.6-9.6S15.302.4 10 .4zm4.835 10.562c-.108.31-.263.58-.463.81-.2.234-.448.415-.743.547-.297.13-.626.196-.99.196-.282 0-.546-.043-.79-.13-.247-.086-.477-.2-.69-.34-.214-.142-.416-.305-.608-.49-.19-.19-.372-.38-.546-.58-.19.2-.377.392-.56.58-.182.185-.374.35-.58.49-.204.14-.427.254-.668.34-.24.087-.51.13-.812.13-.373 0-.704-.065-.996-.197-.29-.133-.542-.31-.75-.533-.21-.224-.368-.49-.478-.798-.107-.31-.162-.642-.162-.996 0-.355.052-.684.157-.99.105-.304.258-.567.457-.79.2-.225.445-.4.737-.533.29-.13.618-.196.983-.196.3 0 .575.045.825.137.25.09.48.212.695.362.215.15.415.322.602.518s.37.402.552.62c.174-.208.354-.413.54-.612.187-.2.386-.376.6-.525.214-.15.446-.27.696-.36.25-.093.52-.138.81-.138.365 0 .692.062.984.19.29.128.536.302.736.525.2.224.354.483.463.784.11.3.164.627.164.982 0 .356-.054.688-.165.996z"/></svg>