<svg xmlns="http://www.w3.org/2000/svg" viewBox="0 0 20 20"><path d="M17.412 6.937c-.36-.283-.924-.4-1.463-.365-.417.026-.762.034-1.006.182-1.116.677-1.217 4.353.182 4.934 2.974 1.236 4.057-3.35 2.286-4.75zm-4.48 3.838c-.962-1.12-1.64-2.68-3.562-2.376-1.706.27-1.924 1.67-2.833 2.65-1.08 1.163-3.105 2.017-3.564 3.837-.335 1.33.116 2.892.913 3.473 1.566 1.137 4.474-.125 6.58.09 1.26.13 2.225.573 3.198.55 2.262-.054 4.09-1.67 3.107-4.295-.48-1.286-2.6-2.494-3.837-3.93zm-.273-3.93c1.133.033 2.3-1.264 2.375-2.467.098-1.57-.93-3.143-2.467-2.74-.914.238-1.664 1.41-1.736 2.558-.083 1.332.617 2.616 1.827 2.65zM8.272 6.48C9.45 6.32 9.94 4.908 9.736 3.282 9.566 1.942 8.84.645 7.268 1.09c-2.165.61-1.82 5.772 1.005 5.39zM4.16 10.592c2.584-.385 1.98-5.938-.82-5.3-2.41.55-2.088 5.735.82 5.3z"/></svg>