<svg xmlns="http://www.w3.org/2000/svg" viewBox="0 0 20 20"><path d="M8.072 9.3s1.892-.146 1.892-2.458c0-2.315-1.548-3.44-3.51-3.44H0v12.925h6.454s3.94.13 3.94-3.816c0 0 .172-3.21-2.322-3.21zM2.844 5.698h3.61s.878 0 .878 1.344c0 1.347-.516 1.542-1.102 1.542H2.844V5.697zM6.27 14.03H2.845v-3.456h3.61s1.308-.018 1.308 1.775c0 1.51-.977 1.668-1.49 1.68zm9.38-7.342c-4.772 0-4.768 4.967-4.768 4.967s-.326 4.94 4.767 4.94c0 0 4.242.255 4.242-3.436H17.71s.072 1.39-1.988 1.39c0 0-2.184.152-2.184-2.25h6.423c.002 0 .71-5.612-4.31-5.612zm1.94 3.886h-4.074s.266-1.992 2.182-1.992 1.892 1.992 1.892 1.992zm.507-6.414H12.98v1.594h5.117V4.16z"/></svg>