<svg xmlns="http://www.w3.org/2000/svg" viewBox="0 0 20 20"><path d="M12.6 3c-1.966 0-3.74.813-5.012 2.12C7.204 5.04 6.808 5 6.4 5c-3.314 0-6 2.686-6 6s2.686 6 6 6h6.2c3.866 0 7-3.134 7-7s-3.134-7-7-7zM6.4 15.728c-1.263 0-2.45-.492-3.344-1.385-.892-.893-1.384-2.08-1.384-3.343s.492-2.45 1.385-3.343c.893-.893 2.08-1.385 3.343-1.385s2.45.492 3.344 1.385l1.874 1.875c.273.273.273.716 0 .99-.274.274-.718.273-.99 0L8.754 8.646c-1.258-1.256-3.45-1.256-4.707 0-.63.63-.975 1.465-.975 2.354s.346 1.724.975 2.354c.785.784 1.933 1.078 2.99.884.325.424.69.815 1.1 1.155-.546.216-1.132.335-1.737.335zm10.29-1.64c-1.094 1.093-2.546 1.695-4.09 1.695-1.545 0-2.997-.602-4.09-1.694L5.8 11.38c-.272-.273-.272-.717 0-.99s.718-.273.99 0L9.5 13.1c.828.827 1.93 1.283 3.1 1.283s2.27-.456 3.1-1.284 1.283-1.93 1.283-3.1-.456-2.27-1.284-3.1-1.93-1.283-3.1-1.283c-.873 0-1.707.255-2.418.727-.38-.31-.802-.57-1.25-.78 1.034-.857 2.308-1.348 3.67-1.348 1.543 0 2.995.602 4.088 1.694 1.093 1.093 1.694 2.545 1.694 4.09s-.602 2.997-1.695 4.09z"/></svg>