<svg xmlns="http://www.w3.org/2000/svg" viewBox="0 0 20 20"><path d="M10.26 9.982c.033-.012.068-.02.103-.03-.083-.186-.175-.378-.28-.585-1.88.557-3.68.562-4 .557-.003.025-.003.05-.003.076 0 .945.34 1.853.958 2.566.206-.332 1.298-1.96 3.222-2.584zm-2.637 3.13c.69.53 1.512.808 2.377.808.517 0 1.02-.1 1.494-.295-.066-.38-.295-1.54-.822-2.922-2.12.75-2.922 2.162-3.05 2.41zm4.932-6.085c-.71-.61-1.617-.947-2.555-.947-.284 0-.57.03-.85.094.205.275.832 1.146 1.42 2.223 1.284-.493 1.864-1.204 1.985-1.37zm-2.85 1.637c-.608-1.072-1.24-1.955-1.415-2.19-1.067.516-1.852 1.505-2.113 2.657h.017c.406 0 1.85-.032 3.51-.466zm1.81 1.832c.464 1.293.678 2.367.74 2.71.85-.6 1.433-1.52 1.608-2.542-.174-.053-.802-.22-1.592-.22-.257 0-.512.017-.756.052zM10 .4C4.698.4.4 4.698.4 10s4.298 9.6 9.6 9.6 9.6-4.298 9.6-9.6S15.302.4 10 .4zm0 14.297c-2.592 0-4.7-2.107-4.7-4.697 0-2.592 2.108-4.7 4.7-4.7 2.59 0 4.698 2.11 4.698 4.7 0 2.59-2.107 4.697-4.698 4.697zm.922-5.623c.087.18.168.357.242.53l.07.17c.278-.032.574-.048.883-.048.854 0 1.563.125 1.8.172-.02-.85-.322-1.676-.85-2.34-.16.206-.82.963-2.145 1.516z"/></svg>