<svg xmlns="http://www.w3.org/2000/svg" viewBox="0 0 20 20"><path d="M5.598 8.54c0-1.636.434-2.677 1.89-2.91.507-.1 1.565-.065 2.238-.065v2.5c0 .024.003.064.01.084.026.1.118.174.227.174.06 0 .118-.03.178-.09L16.378 2H7.548C3.874 2 2 4.115 2 8.066v8.287l3.598-3.602V8.54zM14.4 7.25v4.21c0 1.636-.434 2.68-1.89 2.91-.507.1-1.565.066-2.237.066v-2.5c0-.022-.004-.062-.01-.084-.027-.1-.12-.174-.227-.176-.062 0-.118.033-.18.092l-6.234 6.232L7.81 18h4.642C16.125 18 18 15.885 18 11.934V3.647l-3.6 3.6z"/></svg>