<svg xmlns="http://www.w3.org/2000/svg" viewBox="0 0 20 20"><path d="M4.92 1c-.508 0-.92.412-.92.92v16.516c0 .625.765.926 1.192.47l4.47-4.79c.07-.074.164-.116.265-.116h3.237c.486 0 .905-.343 1-.82l2.112-10.514C16.45 1.804 15.79 1 14.91 1H4.92zm3.918 11.19L6 15.527V3.343c0-.19.154-.343.343-.343h7.14c.342 0 .598.313.53.648L13.6 5.703c-.034.173-.186.297-.362.297h-3.71C9.236 6 9 6.236 9 6.528v1.22c0 .14.113.252.253.252h3.294c.306 0 .536.28.476.58l-.614 3.06c-.044.21-.23.36-.443.36H9.25c-.16 0-.31.07-.412.19z"/></svg>