<svg xmlns="http://www.w3.org/2000/svg" viewBox="0 0 20 20"><path d="M10.015 9.95h-.03c-1.19 0-2.24-.304-2.86.267-.372.342-.528.754-.528 1.197 0 1.852 1.483 2.08 3.39 2.08h.028c1.905 0 3.39-.23 3.39-2.08 0-.443-.157-.856-.528-1.197-.622-.57-1.67-.268-2.862-.268zm-1.622 2.53c-.363 0-.656-.408-.656-.91s.293-.908.656-.908c.363 0 .657.406.657.908s-.293.91-.657.91zm3.213 0c-.363 0-.657-.408-.657-.91s.293-.908.656-.908c.362 0 .656.406.656.908s-.293.91-.656.91zM10 .4C4.698.4.4 4.698.4 10s4.298 9.6 9.6 9.6 9.6-4.298 9.6-9.6S15.302.4 10 .4zm.876 13.54H9.124c-.76 0-3.772-.06-3.772-3.69 0-.834.286-1.445.755-1.955-.074-.184-.078-1.232.32-2.236 0 0 .916.1 2.3 1.05.29-.08.782-.122 1.273-.122s.982.04 1.273.12c1.385-.95 2.3-1.05 2.3-1.05.4 1.004.396 2.053.32 2.236.47.51.756 1.12.756 1.955-.002 3.63-3.014 3.69-3.774 3.69z"/></svg>