<svg xmlns="http://www.w3.org/2000/svg" viewBox="0 0 20 20"><path d="M10 0C5.25 0 1.4 3.806 1.4 8.5S5.25 17 10 17v3c3.368-1.672 8.6-5.305 8.6-11.5C18.6 3.806 14.75 0 10 0zM9 9.74c0 1.33-1.02 2.423-2.32 2.54-.123.01-.228-.09-.228-.212v-.852c0-.106.08-.194.184-.21.53-.076.937-.487 1.047-1.006h-1.95C5.327 10 5 9.672 5 9.268V6.732C5 6.328 5.328 6 5.732 6h2.536c.404 0 .732.328.732.732v3.01zm6 0c0 1.33-1.02 2.423-2.32 2.54-.123.01-.228-.09-.228-.212v-.852c0-.106.08-.194.184-.21.53-.077.937-.487 1.047-1.006h-1.95c-.405 0-.733-.328-.733-.732V6.732c0-.404.328-.732.732-.732h2.536c.404 0 .732.328.732.732v3.01z"/></svg>