<svg xmlns="http://www.w3.org/2000/svg" viewBox="0 0 20 20"><path d="M10 .4C4.698.4.4 4.698.4 10s4.298 9.6 9.6 9.6 9.6-4.298 9.6-9.6S15.302.4 10 .4zm-.553 13.72c-.603.294-1.252.325-1.503.325h-.13c-.392 0-2.343-.09-2.343-1.867 0-1.746 2.125-1.883 2.776-1.883h.017c-.376-.502-.298-1.008-.298-1.008-.033.002-.08.004-.14.004-.245 0-.718-.038-1.124-.3-.498-.32-.75-.865-.75-1.62 0-2.13 2.327-2.216 2.35-2.218h2.324v.05c0 .26-.467.312-.785.355-.108.016-.325.037-.386.068.59.315.684.81.684 1.545 0 .838-.328 1.28-.676 1.592-.216.193-.385.344-.385.547 0 .198.23.4.5.638.442.39 1.047.918 1.047 1.81 0 .924-.397 1.584-1.18 1.963zM14.5 10H13v1.5h-1V10h-1.5V9H12V7.5h1V9h1.5v1zm-6.277 1.15c-.052 0-.104.002-.157.006-.444.033-.854.2-1.15.47-.294.265-.444.6-.423.94.045.71.808 1.127 1.735 1.06.912-.065 1.52-.59 1.476-1.302-.042-.668-.623-1.174-1.48-1.174zm.874-3.865c-.242-.85-.632-1.102-1.238-1.102-.066 0-.132.01-.195.027-.263.075-.472.294-.588.62-.12.33-.126.674-.024 1.066.185.7.683 1.21 1.185 1.21.066 0 .132-.01.194-.028.55-.154.893-.992.665-1.793z"/></svg>