<svg xmlns="http://www.w3.org/2000/svg" viewBox="0 0 20 20"><path d="M10 1.2c-4.86 0-8.8 3.94-8.8 8.8 0 4.86 3.94 8.8 8.8 8.8 4.86 0 8.8-3.94 8.8-8.8 0-4.86-3.94-8.8-8.8-8.8zm3.538 9.138c-.476-.666-.963-1.32-1.497-1.94-.5-.583-1.033-1.14-1.613-1.644-.578-.504-1.208-.982-1.9-1.316-.465-.225-.944-.393-1.44-.536-.055-.015-.207-.084-.25-.015-.03.043-.007.123-.003.17l.04.308c.147 1.228.203 2.525-.18 3.72-.203.642-.577 1.23-1.074 1.685-.413.38-1.002.76-1.587.732-.108-.004-.218-.023-.324-.06-.627-.21-.664-.885-.668-1.442-.004-.598.068-1.195.216-1.775.045-.178.1-.353.16-.527.685-1.986 2.27-3.602 4.26-4.307.743-.263 1.53-.396 2.322-.396 2.326 0 4.54 1.195 5.817 3.137.32.49.577 1.017.766 1.567h-.003c.06.174.117.35.163.527.146.58.22 1.178.216 1.775-.01 1.124-.37 2.366-1.784 1.77-.667-.282-1.224-.852-1.638-1.432z"/></svg>