<svg xmlns="http://www.w3.org/2000/svg" viewBox="0 0 20 20"><path d="M10.91 5c1.883 0 3.416 1.598 3.416 3.56 0 .137-.012.29-.037.485l-.207 1.594c-.043.33.186.65.528.652l1.65.01c.96.006 1.74.835 1.74 1.848 0 1.02-.785 1.85-1.75 1.85H4.167C2.972 15 2 13.978 2 12.722c0-.913.52-1.735 1.323-2.095l.65-.29c.23-.104.51-.432.517-.776l.016-.713c.012-.535.42-.97.91-.97.032 0 .094.006.207.035l1.04.264c.264.067.605-.066.73-.31l.502-.98C8.493 5.723 9.648 5 10.91 5m0-2C8.827 3 7.022 4.207 6.115 5.974c-.225-.057-.457-.096-.7-.096-1.586 0-2.872 1.304-2.91 2.924C1.034 9.462 0 10.966 0 12.722 0 15.085 1.865 17 4.167 17H16.25c2.07 0 3.75-1.724 3.75-3.85 0-2.118-1.667-3.835-3.728-3.848.03-.243.053-.49.053-.74C16.325 5.49 13.9 3 10.91 3z"/></svg>