<svg xmlns="http://www.w3.org/2000/svg" viewBox="0 0 20 20"><path d="M10 .4C4.698.4.4 4.698.4 10s4.298 9.6 9.6 9.6 9.6-4.298 9.6-9.6S15.302.4 10 .4zm2.644 12.43c-2.002 0-2.697-.91-3.066-2.043l-.37-1.166c-.278-.85-.502-1.466-1.52-1.466-.706 0-1.626.463-1.626 1.898 0 1.12.77 1.82 1.568 1.82.677 0 1.084-.38 1.296-.572l.354 1.012c-.24.174-.734.517-1.707.517-1.346 0-2.625-.958-2.625-2.73 0-1.845 1.333-2.93 2.705-2.93 1.54 0 2.113.56 2.6 2.077l.382 1.166c.278.852.865 1.47 2.034 1.47.786 0 1.203-.175 1.203-.606 0-.338-.197-.584-.787-.723l-.787-.188c-.962-.232-1.344-.734-1.344-1.53 0-1.27 1.018-1.667 2.06-1.667 1.182 0 1.9.43 1.99 1.48l-1.156.14c-.046-.5-.347-.71-.903-.71-.51 0-.82.233-.82.63 0 .35.15.56.66.676l.74.164c.994.233 1.527.723 1.527 1.668 0 1.17-.974 1.612-2.41 1.612z"/></svg>