<svg xmlns="http://www.w3.org/2000/svg" viewBox="0 0 20 20"><path d="M8.574 14.576c-.477.348-1.455 1.024-3.38 1.024C2.53 15.6 0 13.707 0 10.195 0 6.547 2.637 4.4 5.354 4.4c3.047 0 4.183 1.108 5.144 4.11l.756 2.308c.55 1.688 1.713 2.91 4.026 2.91 1.558 0 2.382-.346 2.382-1.2 0-.67-.39-1.155-1.557-1.433l-1.56-.37c-1.9-.46-2.655-1.454-2.655-3.024 0-2.515 2.016-3.3 4.077-3.3 2.337 0 3.757.854 3.94 2.932l-2.29.277c-.093-.993-.69-1.41-1.788-1.41-1.01 0-1.628.462-1.628 1.247 0 .693.3 1.11 1.307 1.34l1.465.324c1.97.462 3.025 1.433 3.025 3.304 0 2.31-1.924 3.186-4.766 3.186-3.963 0-5.338-1.8-6.07-4.04L8.43 9.25c-.55-1.687-.99-2.902-3.006-2.902-1.398 0-3.22.916-3.22 3.756 0 2.217 1.524 3.604 3.105 3.604 1.34 0 2.145-.754 2.563-1.13l.7 1.998z"/></svg>