<svg xmlns="http://www.w3.org/2000/svg" viewBox="0 0 20 20"><path d="M10 .4C4.698.4.4 4.698.4 10s4.298 9.6 9.6 9.6 9.6-4.298 9.6-9.6S15.302.4 10 .4zM7.65 13.98H5.706V7.722H7.65v6.256zm-.984-7.025c-.614 0-1.01-.435-1.01-.973 0-.55.408-.97 1.035-.97.628 0 1.012.42 1.024.97 0 .538-.396.973-1.048.973zm8.084 7.024h-1.944V10.51c0-.807-.282-1.355-.985-1.355-.536 0-.855.37-.996.728-.052.127-.065.307-.065.486v3.608H8.813v-4.26c0-.78-.025-1.434-.05-1.996h1.688l.09.87h.038c.256-.41.883-1.01 1.932-1.01 1.28 0 2.238.856 2.238 2.698v3.7z"/></svg>