<svg xmlns="http://www.w3.org/2000/svg" viewBox="0 0 20 20"><path d="M10 .4C4.698.4.4 4.698.4 10s4.298 9.6 9.6 9.6 9.6-4.298 9.6-9.6S15.302.4 10 .4zM6.23 7h7.52c.4 0 .194.512-.023.643-.217.13-3.22 1.947-3.333 2.014s-.257.1-.403.1c-.145 0-.29-.032-.4-.1-.113-.067-3.118-1.883-3.335-2.014C6.038 7.513 5.833 7 6.23 7zM14 12.5c0 .21-.252.5-.444.5H6.444C6.252 13 6 12.71 6 12.5V8.853c0-.092-.002-.21.172-.11L9.59 10.76c.15.09.255.1.4.1.147 0 .253-.01.404-.1s3.188-1.87 3.434-2.014c.174-.102.172.018.172.11V12.5z"/></svg>