<svg xmlns="http://www.w3.org/2000/svg" viewBox="0 0 20 20"><path d="M9.546 17.258h.955V19.4c6.51-.683 9.983-7.142 9.422-11.69C19.358 3.16 14.472.018 8.978.69 3.486 1.364-.49 5.598.072 10.15c.513 4.137 4.602 7.112 9.474 7.108zm6.148-4.398h-1.83V7.907c0-.2-.02-.387-.054-.557-.03-.148-.084-.273-.164-.38-.076-.1-.187-.183-.33-.245-.152-.066-.363-.1-.623-.1-.537 0-.957.14-1.25.416-.292.274-.434.634-.434 1.1v4.72H9.18V7.907c0-.205-.02-.395-.06-.564-.034-.15-.09-.277-.173-.387-.077-.102-.18-.178-.314-.237-.144-.063-.34-.095-.58-.095-.312 0-.58.06-.795.174-.223.116-.405.26-.54.42-.14.165-.24.335-.3.507-.062.172-.092.31-.092.414v4.72H4.494V5.164h1.758v.6c.574-.508 1.306-.766 2.18-.766.51 0 .982.103 1.4.305.306.147.554.365.738.652.23-.248.504-.45.814-.61.454-.23.958-.347 1.5-.347.4 0 .772.043 1.1.127.344.086.645.225.896.412.258.193.46.445.602.75.14.3.212.66.212 1.07v5.503z"/></svg>