<svg xmlns="http://www.w3.org/2000/svg" viewBox="0 0 20 20"><path d="M6.43 9.847c.486-1.96 2.248-3.394 4.34-3.394 1.236 0 2.394.505 3.232 1.382.354-.114.768-.202 1.136-.21v-.13c0-2.482-1.845-4.495-4.12-4.495-1.626 0-3.02 1.038-3.69 2.53-.494-.333-1.07-.534-1.694-.534-1.785 0-3.23 1.577-3.23 3.523 0 .21.023.413.056.612-1.377.136-2.455 1.544-2.455 3.08 0 .016.004.03.004.045-.002.014-.01.028-.01.042 0 .614.214 1.176.56 1.63.493.662 1.263 1.07 2.14 1.07h1.262c-.246-.488-.398-1.032-.398-1.615 0-1.737 1.23-3.192 2.865-3.538zm11.46 1.93c-.026 0-.05.007-.076.008.007-.074.022-.146.022-.222 0-1.472-1.193-2.664-2.665-2.664-.585 0-1.122.193-1.563.515-.546-1.015-1.604-1.712-2.838-1.712-1.79 0-3.238 1.45-3.238 3.237 0 .023.006.043.007.066-.12-.018-.237-.036-.36-.036-1.335 0-2.415 1.08-2.415 2.415 0 .167.017.33.05.487C5.04 15.082 6.1 16 7.38 16h10.706v-.02c1.072-.1 1.914-.993 1.914-2.09 0-1.167-.945-2.113-2.11-2.113z"/></svg>