<svg xmlns="http://www.w3.org/2000/svg" viewBox="0 0 20 20"><path d="M7.914 10.677h1.66c3.603 0 5.648-1.623 6.3-4.96.02-.11.04-.216.055-.322.035-.226.053-.43.06-.624.007-.133.01-.212.01-.286-.008-.39-.077-.722-.216-1.04-.13-.295-.324-.586-.613-.917C14.32 1.557 12.833 1 11.058 1H5.404c-.398 0-.737.29-.8.683l-1.02 6.57-1.268 8.186c-.046.294.182.56.48.56h2.772l.85-5.043c.116-.74.746-1.28 1.496-1.28zm9.103-4.587c-.792 3.77-3.357 5.772-7.445 5.772H7.914c-.164 0-.302.118-.328.282L6.48 19H9.39c.348 0 .645-.253.7-.597l.028-.15.555-3.514.037-.195c.054-.344.35-.597.7-.597h.44c2.85 0 5.08-1.158 5.732-4.506.267-1.38.13-2.534-.563-3.352z"/></svg>