<svg xmlns="http://www.w3.org/2000/svg" viewBox="0 0 20 20"><path d="M5.808 1.823C2.718 3.41.8 6.543.8 10.02c0 .634.08 1.276.22 1.92L8.97 4.7c-.848-.77-3.076-2.8-3.162-2.877zm7.985-.197C12.593 1.08 11.317.8 10 .8c-.935 0-1.856.156-2.75.44l6.543 5.952V1.626zm1.4.812v10.617h3.484c.343-.982.522-2.004.522-3.035 0-3.033-1.523-5.872-4.008-7.582zm-13.73 10.99c.674 1.694 1.857 3.15 3.368 4.185v-7.25l-2.044 1.86-1.323 1.206zm4.767 4.997c.935.422 1.913.682 2.92.775h1.69c3.018-.28 5.726-2.068 7.198-4.744H6.23v3.97z"/></svg>