<svg xmlns="http://www.w3.org/2000/svg" viewBox="0 0 20 20"><path d="M10 .4C4.698.4.4 4.698.4 10s4.298 9.6 9.6 9.6 9.6-4.298 9.6-9.6S15.302.4 10 .4zm.657 11.875c-.616-.047-.874-.352-1.356-.644-.264 1.392-.588 2.726-1.548 3.423-.297-2.104.434-3.682.774-5.36-.58-.974.07-2.935 1.29-2.453 1.504.596-1.3 3.625.582 4.004 1.966.394 2.77-3.412 1.55-4.648-1.762-1.787-5.127-.04-4.713 2.517.1.625.747.815.258 1.678-1.127-.25-1.464-1.138-1.42-2.323.07-1.94 1.743-3.3 3.42-3.486 2.124-.235 4.116.78 4.392 2.778.31 2.254-.96 4.693-3.228 4.517z"/></svg>