<svg xmlns="http://www.w3.org/2000/svg" viewBox="0 0 20 20"><path d="M10 .4C4.698.4.4 4.698.4 10s4.298 9.6 9.6 9.6 9.6-4.298 9.6-9.6S15.302.4 10 .4zm4.008 11.92c-.184.096-.47-.122-.737-.52-.104.435-.368.828-.742 1.144.394.144.65.38.65.65 0 .442-.695.8-1.553.8-.773 0-1.415-.292-1.533-.673h-.184c-.12.382-.76.673-1.533.673-.857 0-1.552-.357-1.552-.8 0-.268.256-.505.65-.65-.375-.315-.638-.708-.745-1.143-.267.398-.553.616-.735.52-.265-.136-.213-.88.117-1.654.26-.61.612-1.06.88-1.158-.005-.04-.006-.078-.006-.117 0-.236.066-.454.177-.63v-.04c0-.11.025-.21.07-.3.067-1.585 1.1-2.844 2.77-2.844s2.703 1.26 2.77 2.845c.045.09.07.19.07.3 0 .01 0 .026-.002.04.113.176.178.394.178.63 0 .04-.002.08-.005.118.268.098.62.547.88 1.158.33.775.382 1.518.118 1.655z"/></svg>