<svg xmlns="http://www.w3.org/2000/svg" viewBox="0 0 20 20"><path d="M17.005 13.018c-.78-.547-1.75-.51-2.304.277-.552.785-4.417 5.633-10.75 3.62.24.208.49.405.755.59 4.153 2.927 9.892 1.93 12.816-2.224.556-.786.264-1.713-.515-2.262zM4.785 12.4c-.404-.87-2.67-6.642 2.24-11.12-.3.104-.597.22-.89.357C1.525 3.772-.48 9.24 1.655 13.85c.402.87 1.352 1.084 2.217.684.864-.4 1.316-1.262.913-2.133zM10.825.824c-.955-.086-1.613.63-1.7 1.578-.084.95.436 1.772 1.392 1.858.956.086 7.087 1.01 8.51 7.502.062-.31.106-.627.136-.95.455-5.06-3.277-9.532-8.337-9.987zM6.892 10.53c-.263.62-.305 1.213-.093 1.322.146.076.374-.098.588-.416.085.347.295.662.595.914-.314.115-.52.305-.52.52 0 .353.556.638 1.24.638.62 0 1.13-.232 1.226-.537h.147c.095.306.607.538 1.226.538.685 0 1.24-.285 1.24-.64 0-.214-.205-.403-.52-.518.3-.252.51-.566.594-.914.214.318.442.492.59.416.21-.11.17-.703-.096-1.322-.207-.488-.488-.848-.702-.926.004-.03.004-.063.004-.094 0-.19-.052-.363-.142-.504.002-.012.002-.023.002-.033 0-.088-.02-.168-.056-.238C12.16 7.467 11.334 6.46 10 6.46c-1.336 0-2.16 1.007-2.215 2.274-.035.07-.057.15-.057.238 0 .01 0 .02.002.033-.088.142-.14.316-.14.505 0 .03 0 .062.003.094-.213.078-.495.437-.702.926z"/></svg>