<svg xmlns="http://www.w3.org/2000/svg" viewBox="0 0 20 20"><path d="M10 .4C4.698.4.4 4.698.4 10s4.298 9.6 9.6 9.6 9.6-4.298 9.6-9.6S15.302.4 10 .4zm3.215 13.793c-.28.267-.664.42-1.055.42-.48 0-.867-.18-1.153-.532-.198-.243-.308-.495-.466-.935l-.077-.22c-.183-.497-.344-.75-.577-.878-.07.27-.15.525-.234.756-.445 1.216-1.077 1.832-1.88 1.832-.45 0-.848-.185-1.12-.522-.33-.413-.438-.996-.3-1.642l.03-.138 1.017.222-.03.138c-.073.332-.044.6.08.755.077.094.185.143.323.143.4 0 .795-.64 1.094-1.76-.328-.11-.628-.275-.896-.49l-.11-.088.65-.818.11.09c.14.112.298.205.47.275.087-.5.156-1.047.207-1.632l.013-.14 1.035.09-.012.14c-.053.604-.124 1.17-.212 1.684.715-.072 1.366-.478 1.728-1.087.593-1 .357-2.25-.56-2.974-.393-.31-.97-.485-1.507-.458-.67.028-1.237.33-1.68.91-.537.695-.593 1.738-.136 2.478l.075.12-.884.553-.075-.12c-.688-1.116-.608-2.627.197-3.672.63-.82 1.482-1.272 2.46-1.313.8-.03 1.603.217 2.192.68 1.334 1.054 1.676 2.877.81 4.334-.38.642-.968 1.13-1.67 1.394.13.198.24.434.368.78l.08.226c.257.714.374.778.642.778.122 0 .254-.052.338-.132.16-.154.208-.45.14-.882l-.02-.14 1.026-.162.022.14c.122.78-.035 1.402-.45 1.8z"/></svg>