<svg xmlns="http://www.w3.org/2000/svg" viewBox="0 0 20 20"><path d="M5.673 19c-.877 0-1.65-.36-2.176-1.014-.645-.803-.85-1.936-.58-3.19l.057-.27 1.973.43-.058.27c-.14.645-.084 1.165.157 1.465.148.185.36.28.626.28.776 0 1.545-1.242 2.126-3.42-.637-.215-1.222-.534-1.742-.95l-.213-.172 1.258-1.59.215.173c.274.22.58.402.914.538.17-.97.304-2.032.403-3.17l.024-.273 2.01.177-.024.275c-.102 1.17-.24 2.267-.41 3.268 1.387-.14 2.65-.927 3.354-2.11 1.152-1.942.694-4.372-1.09-5.78-.76-.6-1.88-.942-2.926-.89C8.27 3.1 7.17 3.687 6.306 4.81c-1.04 1.352-1.15 3.378-.26 4.817l.144.234-1.715 1.074-.145-.235c-1.34-2.168-1.183-5.102.38-7.133C5.935 1.97 7.59 1.095 9.49 1.015c1.552-.06 3.114.42 4.257 1.322 2.594 2.047 3.257 5.587 1.577 8.418-.74 1.246-1.882 2.196-3.243 2.707.253.384.467.843.713 1.514l.158.44c.498 1.387.725 1.51 1.246 1.51.236 0 .494-.1.657-.256.313-.3.405-.875.274-1.712l-.043-.273 1.995-.315.042.273c.236 1.513-.068 2.723-.877 3.5-.542.517-1.29.814-2.05.814-.93 0-1.683-.348-2.238-1.033-.385-.474-.6-.964-.905-1.818l-.153-.426c-.356-.968-.67-1.457-1.12-1.707-.14.526-.29 1.02-.455 1.468C8.46 17.804 7.232 19 5.673 19z"/></svg>