<svg xmlns="http://www.w3.org/2000/svg" viewBox="0 0 20 20"><path d="M10 .4C4.698.4.4 4.698.4 10s4.298 9.6 9.6 9.6 9.6-4.298 9.6-9.6S15.302.4 10 .4zm3.403 9.082c.022.17.034.342.034.518 0 2.176-1.742 3.94-3.892 3.94-2.148 0-3.89-1.765-3.89-3.94 0-2.178 1.74-3.942 3.89-3.942.31 0 .608.04.896.107V8.41c-.453-.166-1.014-.142-1.54.11-.952.462-1.435 1.495-1.08 2.312.358.816 1.42 1.106 2.372.645.656-.316 1.234-1.078 1.234-2.035V6.55c.082.044.162.095.24.145.74.465 1.838 1.086 3.12 1.152.502.026-.196 1.284-1.383 1.635z"/></svg>