<svg xmlns="http://www.w3.org/2000/svg" viewBox="0 0 20 20"><path d="M4.643 18.284c0 .224-.072.492-.148.716h5.737c.328-.377.513-.83.513-1.342 0-1.385-1.644-2.154-5.24-3.842l-.507-.236C3.225 12.737 1.912 11.995 1 11.11v4.4c.176-.025.36-.043.558-.043 3 0 3.085 2.79 3.085 2.817zM17 1h-3.738c1.748 1.178 2.467 2.842 2.467 4.142 0 2.194-1.837 2.905-2.728 2.905l-.27.002c-2.047 0-3.09-1.248-3.105-3.708-.12-.096-.688-.453-2.347-.453-1.96 0-2.773 1.542-2.773 2.368 0 .973.543 2.055 4.484 3.382 6.737 2.254 6.737 5.255 6.737 7.903v.026c0 .436-.03.923-.117 1.43H17c1.1 0 2-.9 2-2V3c0-1.1-.9-2-2-2z"/></svg>