<svg xmlns="http://www.w3.org/2000/svg" viewBox="0 0 20 20"><path d="M14.688 10.068c-.274-.084-.463-.142-.32-.508.312-.797.345-1.484.008-1.975-.633-.92-2.364-.87-4.348-.025 0-.002-.623.277-.464-.227.306-.997.26-1.833-.216-2.315-1.076-1.098-3.937.04-6.392 2.54C1.116 9.427.05 11.41.05 13.124c0 3.28 4.132 5.475 8.175 5.475 5.3 0 8.825-3.334 8.825-5.822 0-1.505-1.244-2.358-2.362-2.71zm-6.452 7.06c-3.225.32-6.01-1.146-6.22-3.274-.21-2.13 2.236-4.115 5.462-4.438 3.226-.32 6.01 1.146 6.22 3.275.21 2.132-2.236 4.12-5.462 4.44zM19.95 7.4c0-3.313-2.686-5.997-6-5.997-.387 0-.7.313-.7.7s.313.7.7.7c2.54 0 4.6 2.06 4.6 4.6 0 .388.314.7.7.7s.7-.313.7-.7v-.003zm-2.78-.103c-.32-1.562-1.552-2.793-3.114-3.113-.378-.078-.748.166-.826.545-.077.377.166.748.545.826C14.79 5.76 15.59 6.56 15.8 7.576c.077.38.447.62.825.545.377-.077.622-.448.544-.825zM6.58 11.502c-1.3.262-2.177 1.352-1.96 2.434.22 1.084 1.448 1.75 2.748 1.488 1.3-.262 2.176-1.352 1.96-2.434-.22-1.082-1.45-1.75-2.748-1.488z"/></svg>