<svg xmlns="http://www.w3.org/2000/svg" viewBox="0 0 20 20"><path d="M18.67 12.037c.133-.623.204-1.272.204-1.938 0-4.987-3.93-9.03-8.777-9.03-.51 0-1.012.047-1.5.133C7.812.695 6.885.4 5.89.4 3.08.4.8 2.744.8 5.637c0 .965.256 1.87.7 2.648-.117.586-.18 1.194-.18 1.815 0 4.986 3.93 9.03 8.776 9.03.55 0 1.087-.052 1.607-.15.717.395 1.535.62 2.406.62 2.81 0 5.09-2.344 5.09-5.236 0-.837-.19-1.626-.53-2.327zm-4.07 2.38c-.407.59-1.007 1.058-1.784 1.39-.77.33-1.692.496-2.742.496-1.26 0-2.317-.227-3.143-.678-.59-.328-1.075-.77-1.444-1.318-.372-.555-.56-1.104-.56-1.633 0-.33.122-.617.364-.852.24-.232.55-.352.916-.352.3 0 .562.094.773.277.2.176.374.438.513.773.156.367.326.676.505.92.172.234.42.432.735.586.318.154.748.232 1.275.232.725 0 1.32-.158 1.768-.473.438-.31.65-.676.65-1.127 0-.357-.11-.637-.34-.857-.238-.227-.555-.407-.936-.53-.4-.127-.94-.266-1.61-.41-.91-.2-1.684-.44-2.3-.707-.63-.275-1.137-.658-1.508-1.137-.375-.483-.567-1.092-.567-1.807 0-.683.2-1.298.596-1.83.394-.524.966-.934 1.704-1.216.728-.277 1.596-.418 2.576-.418.783 0 1.473.094 2.047.277.578.186 1.066.436 1.45.744.386.31.673.643.853.986.182.35.275.695.275 1.03 0 .323-.12.616-.36.872-.24.258-.544.387-.9.387-.325 0-.58-.082-.757-.242-.164-.148-.336-.383-.524-.717-.22-.428-.484-.766-.788-1.002-.295-.23-.788-.35-1.466-.35-.63 0-1.14.132-1.52.388-.367.25-.544.532-.544.866 0 .207.058.38.176.525.125.157.3.294.523.41.23.12.467.213.705.28.244.07.654.173 1.215.308.71.156 1.363.332 1.94.52.584.194 1.09.43 1.5.706.42.283.755.645.99 1.076.237.434.357.97.357 1.59 0 .745-.206 1.422-.613 2.016z"/></svg>