<svg xmlns="http://www.w3.org/2000/svg" viewBox="0 0 20 20"><path d="M12.164 9.852c-.23-.154-.514-.287-.84-.395-.324-.107-.69-.205-1.088-.293-.314-.074-.543-.133-.68-.172-.132-.037-.265-.09-.395-.158-.123-.064-.222-.14-.292-.23-.065-.08-.098-.18-.098-.294 0-.188.1-.346.305-.484.212-.143.5-.215.85-.215.38 0 .657.065.822.194.17.133.318.322.44.562.106.188.2.318.294.4.1.09.242.137.424.137.2 0 .37-.072.505-.217.133-.143.2-.307.2-.488 0-.188-.052-.383-.153-.576-.1-.193-.262-.38-.477-.553-.215-.175-.487-.313-.81-.417-.323-.104-.71-.156-1.148-.156-.55 0-1.035.078-1.443.234-.414.16-.735.39-.955.684-.222.297-.334.64-.334 1.023 0 .4.108.74.32 1.012.206.267.49.48.843.636.346.15.778.283 1.29.396.373.08.677.158.9.23.214.068.39.168.525.297.127.122.19.278.19.48 0 .252-.12.457-.364.63-.25.177-.584.265-.99.265-.296 0-.535-.043-.714-.13-.177-.087-.315-.196-.412-.327-.1-.137-.195-.31-.282-.516-.078-.19-.176-.334-.29-.434-.116-.104-.263-.154-.43-.154-.208 0-.38.066-.515.195-.135.132-.204.292-.204.478 0 .295.106.604.315.912.208.31.48.557.81.74.463.252 1.055.38 1.76.38.59 0 1.105-.095 1.537-.278.435-.186.77-.45.998-.78.228-.33.344-.712.344-1.128 0-.348-.068-.648-.2-.89-.134-.243-.32-.444-.556-.602zM10 .4C4.698.4.4 4.698.4 10s4.298 9.6 9.6 9.6 9.6-4.298 9.6-9.6S15.302.4 10 .4zm2.3 14.975c-.486 0-.945-.125-1.347-.348-.29.057-.592.086-.9.086-2.713 0-4.914-2.266-4.914-5.057 0-.35.034-.69.1-1.018-.25-.434-.393-.94-.393-1.48 0-1.62 1.276-2.935 2.85-2.935.558 0 1.077.166 1.517.45.272-.048.554-.073.84-.073 2.714 0 4.914 2.264 4.914 5.057 0 .37-.04.734-.113 1.084.19.394.296.835.296 1.304 0 1.618-1.275 2.93-2.85 2.93z"/></svg>