<svg xmlns="http://www.w3.org/2000/svg" viewBox="0 0 20 20"><path d="M13 7.08c1.38 0 2.5-1.12 2.5-2.5s-1.12-2.5-2.5-2.5-2.5 1.12-2.5 2.5 1.12 2.5 2.5 2.5zm5.845-1.137C15.265 8.498 13.615 8.05 12 8c-1.118-.057-1.5.298-1.5 1.08v6c0 5 8.422 3.43 5.166-4.95 1.67-.958 3.076-2.433 3.876-3.41.41-.61-.028-1.246-.697-.777zM7 2.08c-1.38 0-2.5 1.12-2.5 2.5s1.12 2.5 2.5 2.5 2.5-1.12 2.5-2.5-1.12-2.5-2.5-2.5zM8 8c-1.616.05-3.265.498-6.845-2.057-.67-.47-1.108.168-.697.775.8.98 2.205 2.453 3.876 3.412C1.078 18.51 9.5 20.08 9.5 15.08v-6C9.5 8.297 9.118 7.942 8 8z"/></svg>