<svg xmlns="http://www.w3.org/2000/svg" viewBox="0 0 20 20"><path d="M10.023 16.032c-2.508 0-4.253-1.555-4.253-1.555L4.287 17.84c1.023.547 2.092.936 2.71 1.14l-1.593.382c-.746.178-1.496-.283-1.675-1.03L.64 5.406C.46 4.66.92 3.91 1.666 3.73l3.716-.89C4.473 3.87 4.12 5.092 4.21 6.49c.138 2.193 2.236 3.88 4.733 4.822 4.7 1.776 3.586 4.72 1.08 4.72zm9.338-1.438L16.27 1.666C16.092.92 15.342.46 14.595.64l-2.663.636c.68.105 2.024.4 3.505 1.178l-1.16 3.213s-.964-1.078-3.552-1.21c-2.46-.124-3.828 2.538.97 4.106 3.673 1.2 4.847 3.516 4.786 5.658-.03 1.114-.42 2.02-.87 2.702l2.724-.652c.746-.178 1.206-.928 1.027-1.676z"/></svg>