<svg xmlns="http://www.w3.org/2000/svg" viewBox="0 0 20 20"><path d="M10 .4C4.698.4.4 4.698.4 10s4.298 9.6 9.6 9.6 9.6-4.298 9.6-9.6S15.302.4 10 .4zm2.964 13.437c-.148 0-.25-.056-.36-.122-1.012-.613-2.267-.935-3.627-.935-.694 0-1.443.082-2.226.242l-.094.024c-.1.024-.2.05-.28.05-.314 0-.56-.245-.56-.56 0-.317.18-.542.478-.6.934-.212 1.814-.315 2.687-.315 1.58 0 2.995.366 4.202 1.09.208.122.338.26.338.57 0 .308-.25.557-.556.557zm.778-2.183c-.177 0-.292-.067-.395-.127-1.825-1.084-4.547-1.443-6.785-.847l-.102.03c-.084.028-.164.054-.274.054-.368 0-.667-.3-.667-.672 0-.357.185-.607.523-.702.862-.236 1.674-.393 2.84-.393 1.886 0 3.714.473 5.146 1.33.26.148.378.353.378.658 0 .37-.3.67-.666.67zm.883-2.488c-.166 0-.27-.04-.42-.123-1.24-.744-3.172-1.186-5.175-1.186-1.043 0-1.99.115-2.817.338-.028.007-.055.015-.083.024-.088.025-.198.057-.312.057-.44 0-.783-.348-.783-.792 0-.386.217-.68.58-.788.997-.295 2.147-.443 3.414-.443 2.28 0 4.452.506 5.956 1.39.284.16.423.405.423.743 0 .436-.346.78-.785.78z"/></svg>