<svg xmlns="http://www.w3.org/2000/svg" viewBox="0 0 20 20"><path d="M10 1.2c-4.86 0-8.8 3.938-8.8 8.8 0 4.86 3.94 8.8 8.8 8.8 4.862 0 8.8-3.94 8.8-8.8 0-4.86-3.937-8.8-8.8-8.8zm3.478 13.302c-.173 0-.294-.066-.42-.143-1.19-.722-2.663-1.1-4.26-1.1-.813 0-1.692.097-2.61.285l-.11.028c-.117.028-.236.06-.327.06-.37 0-.66-.29-.66-.657 0-.373.21-.637.562-.703 1.096-.25 2.128-.372 3.152-.372 1.855 0 3.513.43 4.93 1.28.244.142.397.306.397.668 0 .36-.292.654-.652.654zm.913-2.56c-.206 0-.342-.08-.462-.15-2.143-1.27-5.333-1.693-7.96-.993-.045.012-.085.024-.12.036-.1.03-.192.062-.322.062-.432 0-.783-.353-.783-.788 0-.42.22-.712.614-.824 1.013-.278 1.964-.462 3.333-.462 2.212 0 4.357.555 6.038 1.56.306.176.445.415.445.772 0 .434-.35.785-.782.785zm1.037-2.92c-.195 0-.315-.048-.495-.145-1.453-.872-3.72-1.39-6.07-1.39-1.223 0-2.335.134-3.305.396-.033.008-.064.017-.098.027-.104.03-.233.068-.366.068-.516 0-.92-.408-.92-.93 0-.452.255-.798.68-.924 1.172-.346 2.52-.52 4.007-.52 2.68 0 5.227.594 6.992 1.63.332.19.495.475.495.872 0 .513-.404.915-.92.915z"/></svg>