<svg xmlns="http://www.w3.org/2000/svg" viewBox="0 0 20 20"><path d="M10 .4C4.698.4.4 4.698.4 10s4.298 9.6 9.6 9.6 9.6-4.298 9.6-9.6S15.302.4 10 .4zm0 7.385c-.293 0-.53.238-.53.53v3.167c0 1.244-1.016 2.256-2.262 2.256s-2.26-1.012-2.26-2.256v-1.326h1.728v1.326c0 .293.238.53.53.53.294 0 .532-.237.532-.53V8.314C7.74 7.07 8.753 6.06 10 6.06c1.246 0 2.26 1.01 2.26 2.255v.603l-1.04.334-.69-.334v-.604c0-.29-.236-.53-.53-.53zm5.053 3.697c0 1.244-1.015 2.256-2.26 2.256-1.248 0-2.263-1.012-2.263-2.256v-1.354l.69.334 1.04-.334v1.354c0 .293.238.53.53.53.294 0 .53-.237.53-.53v-1.326h1.732v1.326z"/></svg>