<svg xmlns="http://www.w3.org/2000/svg" viewBox="0 0 20 20"><path d="M11.05 8.06l1.366.66 2.06-.66V6.864c0-2.463-2.01-4.465-4.476-4.465S5.525 4.402 5.525 6.865v6.27c0 .578-.472 1.05-1.05 1.05-.58 0-1.052-.472-1.052-1.05V10.51H0v2.625c0 2.46 2.007 4.465 4.475 4.465 2.467 0 4.474-2.004 4.474-4.465v-6.27c0-.578.47-1.05 1.05-1.05.58 0 1.052.472 1.052 1.05V8.06zm5.526 2.45v2.625c0 .578-.47 1.05-1.05 1.05-.58 0-1.052-.472-1.052-1.05v-2.678l-2.06.658-1.364-.658v2.678c0 2.46 2.008 4.465 4.475 4.465S20 15.596 20 13.135V10.51h-3.424z"/></svg>