<svg xmlns="http://www.w3.org/2000/svg" viewBox="0 0 20 20"><path d="M10.286 18.82c-1.43-.23-2.733-.606-3.677-.922-.047-.015-.782-.282-1.008-.37-.278-.107-.423-.43-.317-.71.086-.225.38-.95.4-.994.4-.92 1-2.153 1.794-3.38.028 1.204.296 2.4.79 3.507.48 1.078 1.17 2.057 2.016 2.87zm-.113-11.793C7.383 1.337 1.183 1.54.205 4.084c-.75 1.952 2.535 6.602 10.097 3.244l.004-.002c-.026-.047-.114-.247-.133-.3zm1.387-.222h.002c4.27-1.898 3.674-5.192 2.57-5.615-1.488-.57-4.19 1.624-2.648 5.447.015.027.066.14.076.168zm7.853 4.165c-.646-1.45-1.833-2.49-3.213-2.984-.14-.05-.28-.073-.423-.073-.717 0-1.407.595-1.472 1.338-.11 1.24.137 2.502.68 3.72.535 1.198 1.294 2.212 2.27 2.956.254.194.565.285.875.285.56 0 1.117-.295 1.34-.825.57-1.362.596-2.953-.057-4.415zm-3.24 6.37c-1.196-.913-2.143-2.14-2.816-3.647-.682-1.53-.96-3.075-.827-4.596.037-.423.16-.83.36-1.204-.035.01-.11.027-.114.028-.628.158-1.237.43-1.778.785-.784.514-1.475 1.277-1.772 2.177-.08.243-.14.51-.16.765-.096 1.218.102 2.476.635 3.67.517 1.155 1.286 2.118 2.214 2.853.566.447 1.586.73 2.42.73.783 0 1.556-.233 2.25-.585.217-.11.695-.408.726-.43-.415-.105-.804-.29-1.138-.546z"/></svg>