<svg xmlns="http://www.w3.org/2000/svg" viewBox="0 0 20 20"><path d="M20 6.01h-2.83C15.213 4.674 12.813 4 10 4s-5.212.675-7.17 2.01H0c.428.42.827 1.34.993 2.038-.616.83-.993 1.85-.993 2.96 0 2.758 2.243 5 5 5 1.327 0 2.527-.527 3.423-1.374L10 17l1.577-2.366c.896.847 2.096 1.375 3.423 1.375 2.757 0 5-2.244 5-5 0-1.113-.377-2.13-.993-2.962.166-.7.565-1.62.993-2.04zm-15 8.4c-1.875 0-3.4-1.526-3.4-3.4s1.525-3.4 3.4-3.4 3.4 1.524 3.4 3.4-1.525 3.4-3.4 3.4zm5-3.4c0-2.418-1.725-4.44-4.01-4.9C7.196 5.703 8.53 5.5 10 5.5s2.805.204 4.01.61C11.724 6.57 10 8.59 10 11.01zm5 3.4c-1.875 0-3.4-1.526-3.4-3.4s1.525-3.4 3.4-3.4 3.4 1.524 3.4 3.4-1.525 3.4-3.4 3.4zM5 8.86c-1.185 0-2.15.963-2.15 2.15s.965 2.15 2.15 2.15 2.15-.965 2.15-2.15S6.185 8.86 5 8.86zm0 2.79c-.36 0-.65-.29-.65-.65s.29-.65.65-.65.65.29.65.65-.29.65-.65.65zm10-2.79c-1.185 0-2.15.963-2.15 2.15s.965 2.15 2.15 2.15 2.15-.965 2.15-2.15-.965-2.15-2.15-2.15zm0 2.79c-.36 0-.65-.29-.65-.65s.29-.65.65-.65.65.29.65.65-.29.65-.65.65z"/></svg>