<svg xmlns="http://www.w3.org/2000/svg" viewBox="0 0 20 20"><path d="M10 .4C4.698.4.4 4.698.4 10s4.298 9.6 9.6 9.6 9.6-4.298 9.6-9.6S15.302.4 10 .4zm2.577 13.74c-.393.19-.748.32-1.066.396-.317.074-.66.113-1.03.113-.42 0-.79-.056-1.114-.163-.323-.107-.598-.26-.826-.46-.228-.196-.386-.41-.474-.632-.088-.225-.132-.55-.132-.973V9.16H6.918V7.846c.36-.12.67-.29.927-.512.257-.22.464-.486.62-.797.155-.31.262-.707.32-1.185h1.308v2.35h2.18V9.16h-2.18v2.385c0 .54.028.885.085 1.037.056.154.16.275.315.367.204.122.437.184.697.184.466 0 .928-.154 1.388-.46v1.467z"/></svg>