<svg xmlns="http://www.w3.org/2000/svg" viewBox="0 0 20 20"><path d="M17.452 9.95c-.438.102-.863.146-1.244.146-2.145 0-3.797-1.496-3.797-4.102 0-1.277.494-1.94 1.193-1.94.664 0 1.107.595 1.107 1.804 0 .688-.184 1.44-.32 1.887 0 0 .66 1.152 2.47.8.384-.853.592-1.957.592-2.925 0-2.605-1.33-4.12-3.763-4.12-2.505 0-3.97 1.923-3.97 4.462 0 2.512 1.176 4.668 3.114 5.65-.815 1.63-1.852 3.066-2.933 4.147-1.96-2.372-3.733-5.535-4.462-11.707h-2.89c1.335 10.28 5.32 13.553 6.373 14.18.597.36 1.11.342 1.655.035.855-.485 3.422-3.054 4.847-6.06.597-.003 1.314-.07 2.03-.232V9.95z"/></svg>