<svg xmlns="http://www.w3.org/2000/svg" viewBox="0 0 20 20"><path d="M10 .4C4.698.4.4 4.698.4 10s4.298 9.6 9.6 9.6 9.6-4.298 9.6-9.6S15.302.4 10 .4zm1.908 6.45c-.37 0-.632.353-.632 1.03 0 1.377.875 2.17 2.01 2.17.202 0 .428-.024.66-.077v1.072c-.38.086-.76.12-1.075.123-.754 1.59-2.112 2.95-2.564 3.208-.29.163-.56.172-.878-.018-.56-.333-2.668-2.065-3.373-7.508h1.53c.387 3.268 1.325 4.94 2.363 6.196.57-.57 1.12-1.332 1.552-2.193-1.025-.522-1.648-1.663-1.648-2.992 0-1.344.775-2.36 2.102-2.36 1.287 0 1.99.8 1.99 2.18 0 .514-.108 1.098-.313 1.548-.956.188-1.304-.423-1.304-.423.07-.236.168-.635.168-.998 0-.64-.234-.956-.586-.956z"/></svg>