<svg xmlns="http://www.w3.org/2000/svg" viewBox="0 0 20 20"><path d="M10 .4C4.698.4.4 4.698.4 10s4.298 9.6 9.6 9.6 9.6-4.298 9.6-9.6S15.302.4 10 .4zm3.692 10.83s.85.84 1.058 1.228c.006.008.01.016.01.02.086.143.106.254.064.337-.07.138-.31.206-.392.212h-1.5c-.104 0-.322-.027-.586-.21-.203-.14-.403-.374-.598-.6-.29-.34-.543-.63-.797-.63-.03 0-.064.004-.094.014-.192.063-.438.337-.438 1.067 0 .228-.18.36-.307.36h-.686c-.234 0-1.453-.083-2.533-1.222-1.32-1.395-2.51-4.193-2.52-4.22-.076-.18.08-.277.248-.277h1.515c.202 0 .268.123.314.232.054.127.252.632.577 1.2.527.926.85 1.302 1.11 1.302.048 0 .093-.013.138-.036.338-.188.275-1.393.26-1.643 0-.047 0-.54-.174-.775-.124-.17-.335-.236-.463-.26.033-.05.107-.124.2-.17.23-.115.65-.132 1.064-.132h.23c.45.006.566.035.73.076.33.08.336.292.307 1.02-.01.208-.018.442-.018.718 0 .06-.004.124-.004.192-.01.37-.022.792.24.965.034.02.073.033.114.033.09 0 .365 0 1.107-1.273.325-.562.577-1.225.595-1.274.015-.026.06-.106.11-.137.042-.024.097-.03.125-.03h1.78c.195 0 .328.03.353.105.044.12-.008.483-.82 1.584-.138.182-.26.34-.364.48-.737.965-.737 1.014.046 1.747z"/></svg>