<svg xmlns="http://www.w3.org/2000/svg" viewBox="0 0 20 20"><path d="M10 .4C4.698.4.4 4.698.4 10s4.298 9.6 9.6 9.6 9.6-4.298 9.6-9.6S15.302.4 10 .4zM8.063 11.5l-.153.31c-.07.137-.236.19-.347.19H6.15c-.25 0-.24-.19-.18-.316l.093-.184 1.125-2.25L6.563 8l-.092-.185c-.06-.125-.07-.315.18-.315h1.413c.11 0 .276.053.347.19l.153.31.625 1.25-1.125 2.25zm5.967-5.685L13.938 6l-2.5 5 1.5 3 .092.184c.062.125.072.316-.178.316h-1.414c-.112 0-.275-.053-.345-.19l-.155-.31-1.5-3 2.5-5 .155-.31c.07-.138.232-.19.345-.19h1.414c.25 0 .24.19.178.315z"/></svg>