<svg xmlns="http://www.w3.org/2000/svg" viewBox="0 0 20 20"><path d="M12.538 12.47l4.523 1.467s.648.12.64.552c-.003.304-.196.65-.196.65l-1.91 2.757s-.34.286-.686.286c-.344 0-.74-.537-.74-.537l-2.418-4.073s-.272-.594.05-.92c.295-.3.738-.182.738-.182zm-.968-1.87c.23.396.87.28.87.28l4.513-1.33s.615-.253.703-.59c.086-.336-.102-.742-.102-.742l-2.157-2.564s-.187-.324-.575-.357c-.428-.037-.69.486-.69.486l-2.55 4.05s-.225.402-.012.767zM9.438 9.02c.53-.13.616-.91.616-.91l-.036-6.485s-.08-.8-.436-1.017c-.56-.342-.724-.164-.884-.14L4.95 1.873s-.366.123-.557.432c-.273.437.277 1.08.277 1.08L8.564 8.74s.385.4.874.28zm-.925 2.625c.013-.5-.595-.8-.595-.8L3.89 8.79s-.597-.247-.887-.074c-.22.132-.418.372-.437.583l-.262 3.258s-.04.565.106.822c.205.364.88.11.88.11l4.703-1.048c.182-.124.502-.136.52-.797zm1.17 1.76c-.405-.21-.888.223-.888.223l-3.148 3.498s-.393.535-.293.863c.094.307.25.46.47.568l3.162 1.007s.383.08.674-.005c.412-.12.336-.772.336-.772l.07-4.736s-.015-.455-.384-.648z"/></svg>