<svg xmlns="http://www.w3.org/2000/svg" viewBox="0 0 20 20"><path d="M19.418 12.08c-.548-1.046-2.126-1.715-2.806-2.642.46-1.06 2.95-1.714 2.74-3.565-.15-1.337-2.16-1.41-2.675-.33-.386.445-.8.863-1.24 1.254-.212.27-.45.512-.718.726-.31.326-.562.71-.98.925V5.873c-.01-1.4-2.6-1.4-2.61 0v7.33c.113.522.348.923.913.99h.784c.537-.095.843-.425.913-.99v-1.586c0-.55-.1-1.476.26-.924.533.526 1.282 1.093 1.96 1.716.65.6 1.272 1.568 1.957 1.716 1.4.304 2.02-1.057 1.5-2.046zM8.193 4.156c-.556.39-.866 1.59-1.24 2.443-.41.938-.773 1.885-1.174 2.574C4.692 7.93 3.952 5.168 2.645 4.156c-.42-.326-1.346-.317-1.762 0-1.126.857.004 2.374.457 3.17.995 1.744 2.097 3.61 2.938 5.216-.547 1.46-3.31 5.58.39 5.35.897-.587 1.276-1.805 1.763-2.907.997-2.256 1.843-4.205 2.873-6.537.428-.97 1.46-2.402 1.24-3.5-.175-.87-1.498-1.387-2.35-.792z"/></svg>