<svg xmlns="http://www.w3.org/2000/svg" viewBox="0 0 20 20"><path d="M10 .4C4.698.4.4 4.698.4 10s4.298 9.6 9.6 9.6 9.6-4.298 9.6-9.6S15.302.4 10 .4zm-.404 9.08C9 10.83 8.51 11.96 7.933 13.265c-.283.64-.503 1.345-1.02 1.684-2.145.135-.545-2.254-.228-3.1-.487-.928-1.126-2.01-1.7-3.02-.264-.462-.918-1.34-.266-1.837.24-.184.776-.19 1.02 0C6.497 7.58 6.926 9.18 7.554 9.9c.233-.4.442-.948.68-1.492.218-.494.397-1.19.72-1.415.493-.345 1.26-.045 1.36.46.127.635-.47 1.465-.718 2.026zm4.99 3.29c-.396-.087-.757-.648-1.133-.996-.393-.36-.827-.69-1.135-.994-.21-.32-.15.217-.15.535v.92c-.042.327-.22.518-.53.572h-.454c-.328-.038-.464-.27-.53-.573V7.988c.006-.812 1.507-.812 1.513 0v1.49c.242-.123.388-.345.567-.534.154-.125.293-.265.416-.42.255-.228.494-.47.718-.728.3-.626 1.462-.583 1.55.192.122 1.072-1.322 1.45-1.588 2.065.395.537 1.31.925 1.626 1.53.3.573-.058 1.362-.87 1.186z"/></svg>