<svg xmlns="http://www.w3.org/2000/svg" viewBox="0 0 20 20"><path d="M15.99 19.13C16 17 13.802 15.74 11.67 14.82c-2.123-.914-2.8-1.684-2.8-3.334 0-.99.647-.667.93-2.48.12-.753.693-.013.803-1.73 0-.684-.313-.854-.313-.854s.16-1.013.22-1.793c.065-.816-.397-2.56-2.3-3.094-.332-.34-.557-.882.467-1.424C6.44.008 5.917 1.18 4.724 2.042c-1.015.756-1.29 1.953-1.24 2.59.065.78.223 1.793.223 1.793s-.314.17-.314.854c.11 1.717.684.976.803 1.728.284 1.814.933 1.492.933 2.48 0 1.65-.212 2.21-2.336 3.125C.664 15.53 0 17 .01 19.13.015 19.765 0 20 0 20h16s-.014-.234-.01-.87zM17 10V7h-2v3h-3v2h3v3h2v-3h3v-2h-3z"/></svg>