<svg xmlns="http://www.w3.org/2000/svg" viewBox="0 0 20 20"><path d="M19.8 5.165l-2.376-1.83c-.135-.093-.324-.176-.52-.237-.2-.06-.404-.098-.568-.098H9.5l.8 5h6.036c.164 0 .37-.037.566-.098s.387-.145.52-.236L19.8 5.834c.135-.09.202-.212.202-.334s-.067-.243-.2-.335zM8.5 1h-1c-.276 0-.5.224-.5.5V5H3.664c-.166 0-.37.037-.567.1-.198.06-.387.142-.52.235L.2 7.165c-.134.09-.2.213-.2.335 0 .12.066.242.2.335l2.376 1.832c.134.09.323.175.52.235.198.06.402.098.568.098H7v8.5c0 .276.224.5.5.5h1c.276 0 .5-.224.5-.5v-17c0-.276-.224-.5-.5-.5z"/></svg>