<svg xmlns="http://www.w3.org/2000/svg" viewBox="0 0 20 20"><path d="M2.643 6.357c1.747-1.5 3.127-2.686 6.872-.57 1.8 1.016 3.25 1.4 4.457 1.398 2.115 0 3.486-1.176 4.67-2.193.424-.363.478-1.008.123-1.44-.357-.43-.987-.487-1.41-.124-1.746 1.502-3.127 2.688-6.872.57-4.948-2.793-7.266-.803-9.128.797-.422.363-.476 1.006-.12 1.44.355.43.985.486 1.408.122zm14.712 2.178c-1.746 1.5-3.127 2.688-6.872.57C5.535 6.31 3.217 8.3 1.355 9.9c-.422.363-.477 1.008-.12 1.44.354.43.985.487 1.408.124 1.747-1.5 3.127-2.687 6.872-.572 1.8 1.018 3.25 1.4 4.457 1.4 2.115 0 3.486-1.176 4.67-2.195.424-.363.478-1.008.123-1.438-.356-.434-.987-.488-1.41-.125zm0 5.106c-1.746 1.503-3.127 2.69-6.872.573-4.948-2.795-7.266-.805-9.128.795-.422.363-.477 1.008-.12 1.44.354.43.985.485 1.408.122 1.747-1.5 3.127-2.685 6.872-.57 1.8 1.016 3.25 1.4 4.457 1.4 2.115 0 3.486-1.178 4.67-2.195.424-.363.478-1.008.123-1.44-.356-.43-.987-.486-1.41-.124z"/></svg>