<svg xmlns="http://www.w3.org/2000/svg" viewBox="0 0 20 20"><path d="M16.574 16.338c-.757-1.05-2.85-3.824-4.57-6.106.696-1 1.25-1.815 1.505-2.242 1.544-2.594.873-4.26.02-5.67C12.678.91 12.543.094 10 .094 7.457.094 7.322.91 6.47 2.32c-.855 1.41-1.525 3.077.02 5.67.254.427.81 1.244 1.506 2.243-1.72 2.28-3.814 5.055-4.57 6.106-.177.243-.16.663.008 1.08.13.323.63 1.763.752 2.065.156.39.664.67 1.082.092.24-.334 2.582-3.525 4.732-6.522 2.15 2.996 4.49 6.188 4.732 6.522.417.578.926.297 1.082-.092.122-.303.622-1.742.752-2.064.167-.418.184-.838.008-1.082zm-6.94-9.275c-1.068-1.484-1.832-3.21-1.832-3.21s.42-.76 2.198-.76 2.198.76 2.198.76-.766 1.726-1.833 3.21L10 7.56c-.15-.2-.28-.376-.366-.497z"/></svg>