<svg xmlns="http://www.w3.org/2000/svg" viewBox="0 0 20 20"><path d="M15.408 10c0-2.766 1.277-4.32 2.277-4.32H19C18.332 4.62 17.78 4 15.342 4H5.334C1.6 4 0 7.44 0 10s1.6 6 5.334 6h10.008c2.438 0 2.99-.62 3.658-1.68h-1.315s-2.277-1.554-2.277-4.32zm-2.72 1.795c-.164.25-.676.016-.676.016l-2.957-1.337s-.264.67-.467 1.14c-.205.472-.36 1.005-1.21.41-.848-.6-3.58-3.25-3.58-3.25s-.345-.285-.173-.552c.163-.25.676-.015.676-.015L7.258 9.54s.265-.667.468-1.138c.205-.47.36-1.006 1.21-.408.848.596 3.58 3.25 3.58 3.25s.344.283.173.55zm6.186-3.867h-.75c-.558 0-1.104.754-1.104 1.98s.547 1.98 1.105 1.98h.75c.56 0 1.125-.755 1.125-1.98 0-1.226-.566-1.98-1.126-1.98z"/></svg>