<svg xmlns="http://www.w3.org/2000/svg" viewBox="0 0 20 20"><path d="M14.65 8.512c-2.28-4.907-3.466-6.77-7.19-6.693-1.328.026-1.01-.963-2.022-.588-1.01.375-.143.924-1.177 1.773-2.9 2.383-2.634 4.587-1.288 9.84.567 2.213-1.367 2.32-.602 4.465.56 1.564 4.68 2.22 9.025.607 4.347-1.613 7.086-4.814 6.527-6.378-.765-2.146-2.31-.962-3.272-3.028zm-3.726 8.083c-3.882 1.44-7.072.594-7.207.217-.232-.65 1.253-2.816 5.69-4.463 4.44-1.648 6.916-1.037 7.175-.312.153.43-1.775 3.116-5.658 4.557zM9.676 13.1c-2.03.754-3.44 1.615-4.353 2.39.643.584 1.847.726 3.046.28 1.526-.564 2.465-1.865 2.094-2.903l-.016-.036c-.25.083-.508.172-.772.27z"/></svg>