<svg xmlns="http://www.w3.org/2000/svg" viewBox="0 0 20 20"><path d="M16.95 7.472c-2.177 2.902-4.096 3.002-7.047 3.152h-.1c-3.592-.002-6.14-1.336-6.14-1.832 0-.47 2.3-1.697 5.606-1.82L9.86 5.5 9.8 5.498c-4.908 0-7.79 1.562-7.79 3.05v2c0 .92.58 8.95 7.58 8.95s8-8.03 8-8.95v-2c0-.39-.2-.786-.583-1.157l-.06.082zm.64-4.77c-.442-.33-1.07-.242-1.4.2l-3.608 4.81 2.336-5.838c.206-.512-.044-1.094-.557-1.3-.507-.206-1.095.042-1.3.558L9.803 9.274c2.882-.147 4.277-.227 6.067-2.61L17.787 4.1c.332-.44.243-1.068-.2-1.4z"/></svg>