<svg xmlns="http://www.w3.org/2000/svg" viewBox="0 0 20 20"><path d="M11 1C6.092 1 3.002 2.592 3.21 3.95c.06.39.225 1.945.434 3.273C1.24 8.157.442 9.673.55 10.907c.126 1.46 1.44 3.025 4.327 3.295 1.648.154 3.63-.75 4.916-2.295-.122-.207-.193-.45-.193-.707 0-.774.627-1.4 1.4-1.4.774 0 1.4.627 1.4 1.4 0 .762-.61 1.38-1.37 1.398-1.528 1.973-3.857 3.164-6.063 3.025.05.324.07.947.096 1.113.09.58 2.347 2.26 5.937 2.264 3.59-.004 5.847-1.685 5.938-2.263.088-.577 1.64-11.41 1.852-12.787C18.998 2.592 15.907 1 11 1zm-9.057 9.785c-.055-.643.455-1.498 1.924-2.14.21 1.34.44 2.798.643 4.075-1.604-.313-2.498-1.15-2.567-1.935zM11 6.025C7.41 6.02 4.863 4.69 4.863 4.19 4.86 3.698 7.41 2.402 11 2.404c3.59-.002 6.14 1.294 6.137 1.788 0 .498-2.547 1.83-6.137 1.832z"/></svg>