<svg xmlns="http://www.w3.org/2000/svg" viewBox="0 0 20 20"><path d="M10 1C7.79 1 6 2.79 6 5h8c0-2.21-1.79-4-4-4zm9 9h-3V7.503c0-.028-.007-.053-.008-.08l2.215-2.216c.39-.39.39-1.024 0-1.414-.39-.39-1.024-.39-1.414 0l-2.215 2.215c-.028 0-.053-.008-.08-.008H5.502c-.028 0-.053.007-.08.008L3.206 3.793c-.39-.39-1.024-.39-1.414 0-.39.39-.39 1.024 0 1.414l2.215 2.215c0 .028-.008.053-.008.08V10H1c-.552 0-1 .448-1 1s.448 1 1 1h3c0 .78.156 1.52.427 2.204-.044.03-.094.05-.134.09l-2.83 2.827c-.39.392-.39 1.025 0 1.416.392.39 1.025.39 1.416 0l2.6-2.602c.893 1.022 2.123 1.74 3.52 1.976V8h2v9.91c1.397-.235 2.627-.954 3.52-1.976l2.6 2.602c.392.39 1.025.39 1.416 0 .39-.39.39-1.024 0-1.415l-2.83-2.827c-.04-.04-.09-.058-.133-.09.27-.682.427-1.423.427-2.203h3c.552 0 1-.448 1-1s-.448-1-1-1z"/></svg>