<svg xmlns="http://www.w3.org/2000/svg" viewBox="0 0 20 20"><path d="M9.584 6.036c1.952 0 2.59-1.38 1.84-2.843-.872-1.693 1.894-3.155.52-3.155-1.3 0-3.736 1.418-4.19 3.183-.34 1.325.296 2.816 1.83 2.816zm5.212 8.95l-.444-.382c-.487-.42-1.25-.418-1.735 0l-.442.382c-.62.534-1.397.8-2.174.8-.776 0-1.553-.266-2.172-.8l-.444-.383c-.487-.418-1.25-.42-1.734 0l-.444.384c-1.193 1.028-2.967 1.056-4.204.1V19c0 .552.448 1 1 1h16c.552 0 1-.448 1-1v-3.912c-1.237.954-3.01.93-4.206-.1zM10 7c-7.574 0-9 3.36-9 5v.47l1.164 1.002c.486.42 1.25.417 1.735 0l.443-.383c1.237-1.066 3.105-1.067 4.345 0l.444.383c.484.417 1.245.42 1.735 0l.442-.383c1.24-1.067 3.106-1.067 4.345 0l.444.382c.486.42 1.25.417 1.734 0L19 12.47V12c0-1.64-1.426-5-9-5z"/></svg>