<svg xmlns="http://www.w3.org/2000/svg" viewBox="0 0 20 20"><path d="M10 8c-1.657 0-3 1.344-3 3s1.343 3 3 3c1.656 0 3-1.344 3-3s-1.344-3-3-3zm8-3h-2.4c-.33 0-.686-.256-.79-.57l-.62-1.86c-.105-.314-.46-.57-.79-.57H6.6c-.33 0-.686.256-.79.568L5.19 4.43c-.105.314-.46.57-.79.57H2C.9 5 0 5.9 0 7v9c0 1.1.9 2 2 2h16c1.1 0 2-.9 2-2V7c0-1.1-.9-2-2-2zm-8 11c-2.762 0-5-2.238-5-5s2.238-5 5-5c2.76 0 5 2.238 5 5s-2.24 5-5 5zm7.5-7.8c-.387 0-.7-.314-.7-.7 0-.386.313-.7.7-.7s.7.313.7.7c0 .386-.313.7-.7.7z"/></svg>