<svg xmlns="http://www.w3.org/2000/svg" viewBox="0 0 20 20"><path d="M17.584 9.372h2c-.065-1.05-.293-2.053-.668-2.984L17.16 7.402c.224.623.37 1.283.424 1.97zM14.1 1.295c-.954-.45-1.99-.757-3.085-.87v2.02c.733.098 1.433.296 2.084.586l1-1.735zm2.142 4.327l1.74-1.005c-.59-.878-1.33-1.645-2.17-2.285l-1.007 1.742c.55.446 1.03.968 1.437 1.548zm-6.228 11.95c-4.197 0-7.6-3.403-7.6-7.6 0-3.86 2.877-7.037 6.6-7.527V.425c-4.832.5-8.6 4.582-8.6 9.546 0 5.304 4.298 9.602 9.6 9.602 4.825 0 8.808-3.563 9.487-8.2h-2.02c-.658 3.527-3.748 6.2-7.466 6.2z"/></svg>