<svg xmlns="http://www.w3.org/2000/svg" viewBox="0 0 20 20"><path d="M5.72 14.75c-.237 0-.475-.083-.665-.252L-.005 10l5.34-4.748c.413-.365 1.045-.33 1.412.083.367.413.33 1.045-.083 1.412L3.004 10l3.38 3.002c.412.367.45 1 .082 1.412-.197.223-.472.336-.747.336zm8.944-.002L20.004 10l-5.06-4.498c-.412-.367-1.044-.33-1.41.083-.367.413-.33 1.045.083 1.412L16.995 10l-3.66 3.252c-.412.367-.45 1-.082 1.412.197.223.472.336.747.336.236 0 .474-.083.664-.252zm-4.678 1.417l2-12c.09-.545-.277-1.06-.822-1.15-.547-.093-1.06.276-1.15.82l-2 12c-.09.546.277 1.06.822 1.152.056.01.11.013.165.013.48 0 .905-.347.986-.835z"/></svg>