<svg xmlns="http://www.w3.org/2000/svg" viewBox="0 0 20 20"><path d="M16.783 10c0-1.05.646-1.875 1.617-2.443-.176-.584-.407-1.145-.692-1.672-1.09.285-1.97-.14-2.71-.883-.742-.74-.97-1.62-.684-2.71-.527-.286-1.088-.52-1.672-.692-.568.97-1.595 1.615-2.642 1.615-1.048 0-2.074-.645-2.643-1.615-.585.173-1.144.406-1.67.69.284 1.09.058 1.972-.685 2.712-.74.742-1.62 1.168-2.71.883-.286.527-.518 1.088-.692 1.672.97.568 1.615 1.394 1.615 2.443 0 1.047-.645 2.074-1.615 2.643.175.584.406 1.144.69 1.672 1.09-.285 1.972-.06 2.712.682.74.742.97 1.623.684 2.71.527.286 1.087.52 1.672.694.568-.972 1.595-1.616 2.643-1.616 1.048 0 2.075.645 2.644 1.617.584-.175 1.144-.407 1.672-.692-.285-1.088-.06-1.97.683-2.71.74-.74 1.62-1.167 2.71-.884.285-.527.517-1.086.692-1.672-.973-.57-1.62-1.395-1.62-2.442zM10 13.652c-2.018 0-3.653-1.635-3.653-3.652 0-2.018 1.636-3.654 3.653-3.654 2.018 0 3.652 1.637 3.652 3.654 0 2.018-1.634 3.652-3.652 3.652z"/></svg>