<svg xmlns="http://www.w3.org/2000/svg" viewBox="0 0 20 20"><path d="M3.18 5.998c-.424-.35-1.058-.29-1.41.132L.495 7.67c-.35.422-.29 1.057.13 1.406l7.89 6.542-3.808-8.354L3.18 5.998zm3.833-3.315l-1.82.83c-.5.227-.722.824-.495 1.323l4.25 9.325.213-9.178-.82-1.804c-.23-.5-.827-.723-1.327-.495zm7.198.204c.014-.55-.426-1.01-.975-1.023l-2-.046c-.55-.013-1.01.427-1.022.976l-.24 10.243 4.19-8.167.048-1.983zm4.98.95l-1.778-.913c-.49-.25-1.096-.055-1.347.434l-6.39 12.456c-.252.49-.057 1.096.433 1.347l1.78.914c.488.25 1.094.056 1.345-.433l6.39-12.455c.252-.49.057-1.097-.432-1.348zM12.8 16.293c-.253.492-.856.686-1.347.434-.492-.252-.685-.854-.433-1.346.252-.49.854-.684 1.346-.432.492.25.685.854.433 1.345z"/></svg>