<svg xmlns="http://www.w3.org/2000/svg" viewBox="0 0 20 20"><path d="M5.454 14.548s4.568-.627 6.518-2.576 2.576-6.518 2.576-6.518-4.57.627-6.518 2.576-2.576 6.518-2.576 6.518zm3.563-5.533c.818-.818 2.385-1.4 3.73-1.762-.362 1.342-.946 2.92-1.76 3.732-.544.545-1.427.545-1.97 0-.545-.543-.545-1.425 0-1.97zM10 .4C4.7.4.4 4.698.4 10c0 5.303 4.298 9.6 9.6 9.6s9.6-4.297 9.6-9.6c0-5.302-4.298-9.6-9.6-9.6zm0 17.2c-4.197 0-7.6-3.402-7.6-7.6 0-4.197 3.402-7.6 7.6-7.6 4.197 0 7.6 3.402 7.6 7.6 0 4.197-3.403 7.6-7.6 7.6z"/></svg>