<svg xmlns="http://www.w3.org/2000/svg" viewBox="0 0 20 20"><path d="M11 16.755V19H9v-2.143c-1.712-.1-3.066-.59-4.24-1.797l1.717-1.74c.86.87 2.023 1.16 3.282 1.16 1.564 0 2.404-.6 2.404-1.702 0-.483-.133-.89-.42-1.16-.267-.25-.572-.387-1.202-.483L8.9 10.903c-1.164-.174-2.022-.54-2.634-1.14-.648-.658-.973-1.547-.973-2.708 0-2.155 1.382-3.743 3.707-4.1V1h2v1.932c1.382.145 2.465.62 3.415 1.55l-1.68 1.683c-.858-.832-1.888-.947-2.786-.947-1.413 0-2.1.792-2.1 1.74 0 .348.115.716.4.986.268.252.707.464 1.26.54l1.603.233c1.24.174 2.023.522 2.596 1.063.725.696 1.05 1.702 1.05 2.92 0 2.25-1.568 3.662-3.76 4.055z"/></svg>