<svg xmlns="http://www.w3.org/2000/svg" viewBox="0 0 20 20"><path fill-rule="evenodd" clip-rule="evenodd" d="M6 0H4c-.552 0-1 .448-1 1v2c0 .552.448 1 1 1h2c.552 0 1-.448 1-1V1c0-.552-.448-1-1-1zm5 0H9c-.552 0-1 .448-1 1v2c0 .552.448 1 1 1h2c.552 0 1-.448 1-1V1c0-.552-.448-1-1-1zm5 0h-2c-.552 0-1 .448-1 1v2c0 .552.448 1 1 1h2c.552 0 1-.448 1-1V1c0-.552-.448-1-1-1zM6 5H4c-.552 0-1 .448-1 1v2c0 .552.448 1 1 1h2c.552 0 1-.448 1-1V6c0-.552-.448-1-1-1zm5 0H9c-.552 0-1 .448-1 1v2c0 .552.448 1 1 1h2c.552 0 1-.448 1-1V6c0-.552-.448-1-1-1zm5 0h-2c-.552 0-1 .448-1 1v2c0 .552.448 1 1 1h2c.552 0 1-.448 1-1V6c0-.552-.448-1-1-1zM6 10H4c-.552 0-1 .448-1 1v2c0 .552.448 1 1 1h2c.552 0 1-.448 1-1v-2c0-.552-.448-1-1-1zm5 0H9c-.552 0-1 .448-1 1v2c0 .552.448 1 1 1h2c.552 0 1-.448 1-1v-2c0-.552-.448-1-1-1zm0 6H9c-.552 0-1 .448-1 1v2c0 .552.448 1 1 1h2c.552 0 1-.448 1-1v-2c0-.552-.448-1-1-1zm5-6h-2c-.552 0-1 .448-1 1v2c0 .552.448 1 1 1h2c.552 0 1-.448 1-1v-2c0-.552-.448-1-1-1z"/></svg>