<svg xmlns="http://www.w3.org/2000/svg" viewBox="0 0 20 20"><path d="M19.398 7.415L11.954 5.42 10.65.557c-.108-.406-.544-.642-.972-.53L.602 2.462c-.428.115-.686.54-.577.945l3.23 12.05c.11.407.544.644.97.528l3.614-.967-.493 1.838c-.11.406.15.83.577.943l8.11 2.174c.428.116.862-.12.972-.528l2.97-11.084c.108-.406-.15-.83-.578-.943zM1.633 3.63l7.83-2.095 2.898 10.818-7.83 2.096L1.634 3.63zm14.045 14.833L8.864 16.6l.536-2.002 3.9-1.047c.43-.112.69-.536.58-.942L12.37 6.98l5.948 1.632-2.64 9.85z"/></svg>