<svg xmlns="http://www.w3.org/2000/svg" viewBox="0 0 20 20"><path d="M10 .4C4.7.4.4 4.698.4 10c0 5.303 4.298 9.6 9.6 9.6s9.6-4.297 9.6-9.6c0-5.302-4.3-9.6-9.6-9.6zm0 17.2c-4.197 0-7.6-3.403-7.6-7.6C2.4 5.8 5.802 2.4 10 2.4c4.197 0 7.6 3.4 7.6 7.6 0 4.197-3.403 7.6-7.6 7.6zm2.5-7.85c.83 0 1.5-.783 1.5-1.75s-.67-1.75-1.5-1.75c-.827 0-1.5.783-1.5 1.75s.672 1.75 1.5 1.75zm-5 0C8.33 9.75 9 8.967 9 8s-.67-1.75-1.5-1.75C6.674 6.25 6 7.033 6 8s.672 1.75 1.5 1.75zm2.502 1.5c-3.424 0-4.622 2.315-4.672 2.414-.186.37-.035.82.335 1.007.108.054.222.08.335.08.275 0 .54-.15.672-.414.008-.017.822-1.586 3.33-1.586 2.463 0 3.298 1.527 3.328 1.585.184.37.635.523 1.006.336.37-.183.52-.635.336-1.005-.05-.1-1.246-2.415-4.67-2.415z"/></svg>