<svg xmlns="http://www.w3.org/2000/svg" viewBox="0 0 20 20"><path d="M10 .4C4.698.4.4 4.698.4 10s4.298 9.6 9.6 9.6c5.3 0 9.6-4.298 9.6-9.6S15.3.4 10 .4zm0 17.2c-4.197 0-7.6-3.403-7.6-7.6C2.4 5.8 5.802 2.4 10 2.4c4.197 0 7.6 3.4 7.6 7.6 0 4.197-3.403 7.6-7.6 7.6zm2.5-11.35c-.828 0-1.5.784-1.5 1.75s.672 1.75 1.5 1.75c.83 0 1.5-.783 1.5-1.75s-.67-1.75-1.5-1.75zm-5 3.5C8.33 9.75 9 8.967 9 8s-.672-1.75-1.5-1.75S6 7.033 6 8s.672 1.75 1.5 1.75zm5.5 2.5H7c-.414 0-.75.336-.75.75s.336.75.75.75h6c.414 0 .75-.336.75-.75 0-.415-.335-.75-.75-.75z"/></svg>