<svg xmlns="http://www.w3.org/2000/svg" viewBox="0 0 20 20"><path d="M7.5 9.75C8.33 9.75 9 8.967 9 8s-.67-1.75-1.5-1.75S6 7.034 6 8s.672 1.75 1.5 1.75zM10 .4C4.698.4.4 4.698.4 10s4.298 9.6 9.6 9.6c5.3 0 9.6-4.298 9.6-9.6S15.3.4 10 .4zm0 17.2c-4.197 0-7.6-3.403-7.6-7.6C2.4 5.8 5.802 2.4 10 2.4S17.6 5.8 17.6 10c0 4.197-3.403 7.6-7.6 7.6zm4.34-6.264c-.362-.187-.814-.043-1.007.32-.034.065-.87 1.593-3.332 1.593-2.45 0-3.29-1.514-3.332-1.593-.188-.365-.632-.514-1.004-.33-.37.186-.52.637-.335 1.008.05.1 1.247 2.414 4.67 2.414 3.426 0 4.622-2.317 4.67-2.416.185-.367.037-.81-.33-.998zM11.25 8.75h2.5c.414 0 .75-.336.75-.75s-.336-.75-.75-.75h-2.5c-.414 0-.75.336-.75.75 0 .415.336.75.75.75z"/></svg>