<svg xmlns="http://www.w3.org/2000/svg" viewBox="0 0 20 20"><path d="M10 .4C4.698.4.4 4.698.4 10s4.298 9.6 9.6 9.6c5.3 0 9.6-4.298 9.6-9.6S15.3.4 10 .4zm0 17.2c-4.197 0-7.6-3.403-7.6-7.6S5.802 2.4 10 2.4c4.197 0 7.6 3.402 7.6 7.6s-3.403 7.6-7.6 7.6zM7.5 9.75C8.33 9.75 9 8.967 9 8s-.672-1.75-1.5-1.75S6 7.033 6 8s.672 1.75 1.5 1.75zm5 0c.83 0 1.5-.783 1.5-1.75s-.672-1.75-1.5-1.75S11 7.034 11 8s.672 1.75 1.5 1.75zm1.84 1.586c-.362-.186-.814-.043-1.007.32-.034.066-.87 1.593-3.332 1.593-2.45 0-3.29-1.514-3.332-1.593-.188-.365-.632-.514-1.004-.33-.37.187-.52.637-.335 1.008.05.1 1.247 2.414 4.67 2.414 3.426 0 4.622-2.317 4.67-2.416.185-.367.037-.81-.33-.998z"/></svg>