<svg xmlns="http://www.w3.org/2000/svg" viewBox="0 0 20 20"><path d="M16.998 4.18l-3.154-2.425c-.872-.67-2.135-.506-2.807.365l-8.4 10.897c-.67.87-.507 2.132.365 2.803l3.153 2.425c.872.67 2.135.506 2.807-.365l8.4-10.897c.672-.87.508-2.132-.364-2.803zm-8.45 12.287l-.537.68c-.15.198-.384.31-.638.31-.124 0-.31-.028-.485-.163L3.734 14.87c-.168-.13-.275-.318-.303-.53-.027-.214.03-.423.158-.59l.537-.68c.152-.198.385-.312.64-.312.124 0 .31.03.485.164l3.154 2.425c.168.13.275.317.303.53.026.213-.03.422-.16.59z"/></svg>