<svg xmlns="http://www.w3.org/2000/svg" viewBox="0 0 20 20"><path d="M18.52 1.478c-.388-.39-1.022-.39-1.413 0L1.48 17.107c-.392.39-.392 1.025 0 1.414.39.39 1.022.39 1.413 0L18.52 2.892c.392-.39.392-1.024 0-1.414zM3.11 13.498l2.56-2.56c-.07-.302-.113-.615-.113-.938 0-2.38 1.99-4.31 4.445-4.31.286 0 .564.033.835.083l1.203-1.202c-.644-.103-1.32-.17-2.038-.17C3.44 4.4 0 9.232 0 10c0 .423 1.057 2.09 3.108 3.497zm13.787-6.993l-2.562 2.56c.07.302.11.613.11.935 0 2.38-1.988 4.307-4.443 4.307-.284 0-.56-.032-.83-.08l-1.203 1.202c.642.103 1.316.17 2.033.17 6.56 0 10-4.834 10-5.6 0-.424-1.056-2.09-3.105-3.495z"/></svg>