<svg xmlns="http://www.w3.org/2000/svg" viewBox="0 0 20 20"><path d="M4.254 19.567c.307-.982.77-2.364 1.39-4.362 2.708-.43 3.828.34 5.547-2.73-1.394.428-3.076-.79-2.986-1.32.09-.528 3.913.38 6.416-3.173-3.155.696-4.164-.836-3.757-1.067.94-.534 3.726-.222 5.212-1.67.766-.744 1.125-2.555.813-3.2-.374-.782-2.656-1.947-3.914-1.837-1.258.11-3.23 4.79-3.817 4.754-.584-.037-.703-2.098.32-4.013-1.078.476-3.052 1.958-3.67 3.225-1.154 2.357.107 7.766-.297 7.958-.405.193-1.766-2.48-2.172-3.694-.555 1.858-.568 3.72 1.053 6.193-.61 1.623-.944 3.49-.995 4.44-.024.76.724.923.86.494z"/></svg>