<svg xmlns="http://www.w3.org/2000/svg" viewBox="0 0 20 20"><path d="M9.68 7.85c-.374.094-.607.497-.52.9.717 3.328.873 6.815.452 10.086-.053.41.212.79.592.846.033.005.066.007.097.007.342 0 .64-.272.69-.647.443-3.452.28-7.128-.476-10.632-.087-.404-.46-.652-.834-.56zm-1.61 4.223c-.383.038-.664.404-.63.816.17 1.967.126 3.908-.13 5.77-.057.41.205.792.584.853.035.006.07.008.103.008.34 0 .636-.266.687-.64.273-1.98.32-4.042.14-6.13-.034-.412-.385-.72-.755-.677zm1.088-6.66c-.783.198-1.45.713-1.875 1.45-.427.738-.56 1.61-.38 2.454.09.41.17.82.238 1.23.07.407.44.676.81.602.378-.076.627-.467.558-.874-.073-.433-.157-.865-.25-1.3-.098-.453-.025-.922.205-1.32.23-.397.59-.675 1.01-.78.872-.22 1.74.37 1.943 1.31.746 3.46.942 6.928.58 10.308-.043.41.23.783.612.83.027.004.054.006.08.006.35 0 .65-.282.69-.664.38-3.55.174-7.192-.608-10.82-.375-1.743-1.99-2.834-3.612-2.432zm-2.41.534c.24-.325.187-.797-.114-1.054-.302-.257-.738-.2-.976.123-.122.167-.236.342-.34.524-.754 1.305-.992 2.848-.67 4.343.594 2.757.733 5.588.4 8.19-.05.41.215.788.595.845.033.004.064.006.096.006.34 0 .64-.272.687-.647.353-2.78.207-5.8-.425-8.733-.238-1.105-.062-2.246.495-3.21.078-.136.16-.265.25-.387zm8.362 6.872c-.383.02-.68.37-.66.785.063 1.384.043 2.774-.06 4.13-.03.415.254.776.637.81l.057.003c.36 0 .663-.297.692-.69.107-1.422.128-2.878.062-4.327-.02-.413-.354-.722-.728-.71zm-.17-1.036c.03 0 .058-.002.087-.006.38-.05.65-.425.604-.836-.14-1.223-.344-2.455-.605-3.663-.552-2.575-2.75-4.444-5.223-4.444-.39 0-.782.047-1.164.142-.316.08-.625.19-.92.327-.353.165-.515.607-.363.987.153.38.563.555.914.39.218-.102.45-.184.68-.242.28-.07.565-.104.852-.104 1.834 0 3.46 1.38 3.87 3.283.25 1.157.445 2.337.58 3.507.043.38.343.657.688.657zm2.342-5.068c-.316-1.472-1.015-2.825-2.02-3.913-.27-.293-.71-.292-.983 0-.273.293-.273.774-.003 1.067.823.89 1.394 2.007 1.65 3.208.648 3.003.938 6.085.862 9.098-.01.414.29.824.675.824h.02c.374 0 .683-.375.694-.782.078-3.142-.224-6.374-.898-9.502zM3.39 12.856c.033 0 .068-.004.102-.01.38-.06.642-.44.587-.85-.086-.618-.197-1.253-.333-1.887-.38-1.755-.1-3.566.785-5.1.883-1.53 2.267-2.597 3.894-3.005 1.406-.35 2.9-.144 4.193.558.34.187.76.037.932-.333.173-.37.035-.82-.308-1.007-1.58-.858-3.408-1.106-5.13-.68-1.99.5-3.682 1.805-4.762 3.674C2.27 6.09 1.93 8.304 2.392 10.45c.128.593.233 1.186.31 1.764.052.373.35.64.688.64zM3.597 14h-.023c-.384 0-.684.25-.672.663.027.848.004 1.58-.07 2.39-.037.412.242.778.624.818.023.003.046.004.07.004.352 0 .654-.238.69-.625.08-.876.105-1.724.076-2.638C4.28 14.207 3.97 14 3.597 14z"/></svg>