<svg xmlns="http://www.w3.org/2000/svg" viewBox="0 0 20 20"><path d="M17.115 2.884c-1.676-1.676-3.78-2.288-4.45-1.618L9.97 3.962c-.41.41-.766 1.78-.602 3.164l-8.16 8.16c-.485.485-.093 1.66.875 2.63s2.146 1.36 2.63.877l8.16-8.162c1.386.165 2.755-.192 3.164-.6l2.696-2.697c.67-.67.058-2.774-1.618-4.45zM8.14 11.04c-.372-.373-.25-1.097.27-1.618.52-.52 1.246-.643 1.618-.27.372.37.25 1.097-.27 1.617s-1.245.642-1.617.27zm6.75-5.932c-1.297-1.297-1.622-3.01-1.507-3.125.115-.116 1.76.277 3.06 1.575 1.297 1.298 1.687 2.946 1.574 3.06-.112.11-1.83-.21-3.126-1.51z"/></svg>