<svg xmlns="http://www.w3.org/2000/svg" viewBox="0 0 20 20"><path d="M18 14.824V12.5c0-1.933-1.567-3.5-3.5-3.5h-2c-.828 0-1.5-.672-1.5-1.5V5.176c.825-.38 1.4-1.208 1.4-2.176 0-1.326-1.074-2.4-2.4-2.4S7.6 1.674 7.6 3c0 .967.576 1.796 1.4 2.176V7.5C9 8.328 8.328 9 7.5 9h-2C3.567 9 2 10.567 2 12.5v2.324C1.175 15.204.6 16.034.6 17c0 1.326 1.074 2.4 2.4 2.4s2.4-1.075 2.4-2.4c0-.967-.576-1.796-1.4-2.176V12.5c0-.828.672-1.5 1.5-1.5h2c.54 0 1.044-.132 1.5-.35v4.174c-.825.38-1.4 1.21-1.4 2.176 0 1.326 1.074 2.4 2.4 2.4s2.4-1.075 2.4-2.4c0-.967-.576-1.796-1.4-2.176V10.65c.456.218.96.35 1.5.35h2c.828 0 1.5.672 1.5 1.5v2.324c-.825.38-1.4 1.208-1.4 2.176 0 1.326 1.074 2.4 2.4 2.4s2.4-1.075 2.4-2.4c0-.967-.575-1.796-1.4-2.176zm-8-13.21c.764 0 1.384.62 1.384 1.386 0 .764-.62 1.385-1.384 1.385-.765 0-1.384-.62-1.384-1.385 0-.766.62-1.385 1.384-1.385zm-7 16.77c-.766 0-1.385-.62-1.385-1.384 0-.766.62-1.385 1.385-1.385.764 0 1.384.62 1.384 1.385 0 .764-.62 1.385-1.384 1.385zm7 0c-.766 0-1.385-.62-1.385-1.384 0-.766.62-1.385 1.385-1.385.764 0 1.384.62 1.384 1.385 0 .764-.62 1.385-1.384 1.385zm7 0c-.766 0-1.385-.62-1.385-1.384 0-.766.62-1.385 1.385-1.385.764 0 1.384.62 1.384 1.385 0 .764-.62 1.385-1.384 1.385z"/></svg>