<svg xmlns="http://www.w3.org/2000/svg" viewBox="0 0 20 20"><path d="M16.4 4c0-1.326-1.074-2.4-2.4-2.4S11.6 2.674 11.6 4c0 .96.568 1.784 1.384 2.167-.082 1.584-1.27 2.122-3.335 2.896-.87.327-1.83.69-2.65 1.234v-4.12c.825-.38 1.4-1.21 1.4-2.177 0-1.326-1.074-2.4-2.4-2.4S3.6 2.674 3.6 4c0 .967.576 1.796 1.4 2.176v7.65c-.825.378-1.4 1.207-1.4 2.174 0 1.326 1.074 2.4 2.4 2.4s2.4-1.075 2.4-2.4c0-.96-.568-1.784-1.384-2.167.082-1.583 1.27-2.122 3.335-2.896 2.03-.762 4.542-1.71 4.64-4.756.83-.377 1.41-1.21 1.41-2.18zM6 2.615c.764 0 1.384.62 1.384 1.385 0 .764-.62 1.385-1.384 1.385-.765 0-1.384-.62-1.384-1.385 0-.766.62-1.385 1.384-1.385zm0 14.77c-.766 0-1.385-.62-1.385-1.385 0-.766.62-1.385 1.385-1.385.764 0 1.384.62 1.384 1.385 0 .764-.62 1.385-1.384 1.385zm8-12c-.766 0-1.385-.62-1.385-1.385 0-.766.62-1.385 1.385-1.385.764 0 1.384.62 1.384 1.385 0 .764-.62 1.385-1.384 1.385z"/></svg>