<svg xmlns="http://www.w3.org/2000/svg" viewBox="0 0 20 20"><path d="M14 14.6c-.967 0-1.796.576-2.176 1.4H8.5c-.828 0-1.5-.672-1.5-1.5v-3.85c.456.218.96.35 1.5.35h3.324c.38.824 1.208 1.4 2.176 1.4 1.326 0 2.4-1.075 2.4-2.4S15.326 7.6 14 7.6c-.967 0-1.796.576-2.176 1.4H8.5C7.672 9 7 8.328 7 7.5V5.176c.825-.38 1.4-1.21 1.4-2.176C8.4 1.674 7.326.6 6 .6S3.6 1.674 3.6 3c0 .967.576 1.796 1.4 2.176V14.5C5 16.433 6.567 18 8.5 18h3.324c.38.824 1.208 1.4 2.176 1.4 1.326 0 2.4-1.075 2.4-2.4s-1.074-2.4-2.4-2.4zm0-5.985c.764 0 1.384.62 1.384 1.385 0 .764-.62 1.385-1.384 1.385-.766 0-1.385-.62-1.385-1.385 0-.766.62-1.385 1.385-1.385zm-8-7c.764 0 1.384.62 1.384 1.385 0 .764-.62 1.385-1.384 1.385-.765 0-1.384-.62-1.384-1.385 0-.766.62-1.385 1.384-1.385zm8 16.77c-.766 0-1.385-.62-1.385-1.385 0-.766.62-1.385 1.385-1.385.764 0 1.384.62 1.384 1.385 0 .764-.62 1.385-1.384 1.385z"/></svg>