<svg xmlns="http://www.w3.org/2000/svg" viewBox="0 0 20 20"><path d="M11 13.824V6.176c.825-.38 1.4-1.208 1.4-2.176 0-1.326-1.074-2.4-2.4-2.4S7.6 2.674 7.6 4c0 .967.576 1.796 1.4 2.176v7.65c-.825.378-1.4 1.207-1.4 2.174 0 1.326 1.074 2.4 2.4 2.4s2.4-1.075 2.4-2.4c0-.967-.575-1.796-1.4-2.176zm-1-11.21c.764 0 1.384.62 1.384 1.386 0 .764-.62 1.385-1.384 1.385-.765 0-1.384-.62-1.384-1.385 0-.766.62-1.385 1.384-1.385zm0 14.77c-.766 0-1.385-.62-1.385-1.384 0-.766.62-1.385 1.385-1.385.764 0 1.384.62 1.384 1.385 0 .764-.62 1.385-1.384 1.385z"/></svg>