<svg xmlns="http://www.w3.org/2000/svg" viewBox="0 0 20 20"><path d="M8.4 4c0-1.326-1.074-2.4-2.4-2.4S3.6 2.674 3.6 4c0 .967.576 1.796 1.4 2.176v7.65c-.825.378-1.4 1.207-1.4 2.174 0 1.326 1.074 2.4 2.4 2.4s2.4-1.075 2.4-2.4c0-.967-.576-1.796-1.4-2.176V6.176c.825-.38 1.4-1.21 1.4-2.176zM7.384 16c0 .764-.62 1.385-1.384 1.385-.766 0-1.385-.62-1.385-1.385 0-.766.62-1.385 1.385-1.385.764 0 1.384.62 1.384 1.385zM6 5.385c-.765 0-1.384-.62-1.384-1.385 0-.766.62-1.385 1.385-1.385S7.386 3.235 7.386 4c0 .764-.62 1.385-1.385 1.385zm9 8.44v-7.65c.825-.38 1.4-1.207 1.4-2.175 0-1.326-1.074-2.4-2.4-2.4S11.6 2.674 11.6 4c0 .967.576 1.796 1.4 2.176v7.65c-.825.38-1.4 1.207-1.4 2.175 0 1.327 1.074 2.4 2.4 2.4s2.4-1.074 2.4-2.4c0-.967-.575-1.796-1.4-2.176zM12.616 4c0-.766.62-1.385 1.385-1.385s1.385.62 1.385 1.385c0 .764-.62 1.385-1.384 1.385-.765 0-1.384-.62-1.384-1.385zM14 17.385c-.766 0-1.385-.62-1.385-1.385 0-.766.62-1.385 1.385-1.385.764 0 1.384.62 1.384 1.385 0 .764-.62 1.385-1.384 1.385z"/></svg>