<svg xmlns="http://www.w3.org/2000/svg" viewBox="0 0 20 20"><path d="M12.66 8.76c.44-1.087-.364-2.51-1.21-3.406.328-1.19.37-2.822-.526-3.575-.897-.755-2.497-.43-3.613.097C6.283 1.197 4.744.65 3.75 1.27c-.994.622-1.18 2.244-1.023 3.468-.964.77-1.96 2.064-1.676 3.2s1.767 1.817 2.98 2.045c.433 1.155 1.357 2.5 2.526 2.584.828.058 1.62-.53 2.224-1.263 1.22 1.52 2.082 3.127 2.555 4.706C10.612 14.93 9.115 14 6 14c0 4.155 3.042 5.003 5 5.003l3.2.002c0-2.723-.986-5.91-3.29-8.9.783-.248 1.48-.678 1.75-1.345zm-4.377-.22c-1.147.715-2.657.366-3.372-.78-.715-1.148-.365-2.658.782-3.374s2.656-.365 3.372.78c.715 1.148.366 2.658-.78 3.374zm5.737 3.708c1.083 2.17 1.67 4.453 1.678 6.705C18.996 16.583 19 12.206 19 8.003c0 0-3.67 1.034-4.98 4.245z"/></svg>