<svg xmlns="http://www.w3.org/2000/svg" viewBox="0 0 20 20"><path d="M18.405 2.8c-.112-.44-.656-.8-1.21-.8H2.805c-.555 0-1.1.36-1.21.8l-.2 1.2h17.21l-.2-1.2zM19.412 5H.587c-.342 0-.61.294-.577.635l.923 11.67c.038.393.37.695.766.695h16.6c.397 0 .728-.302.766-.696l.923-11.67c.032-.34-.236-.634-.578-.634zm-7.47 7.52c-.128.266-.258.28-.202 0 .146-.72.047-2.268-1.043-2.44v3.294c0 .674-.31 1.262-1.136 1.528-.8.256-1.698-.01-1.907-.586-.21-.576.26-1.276 1.052-1.564.442-.16.954-.203 1.3-.07V8h.693c0 1.633 2.818 1.275 1.244 4.52z"/></svg>