<svg xmlns="http://www.w3.org/2000/svg" viewBox="0 0 20 20"><path fill-rule="evenodd" clip-rule="evenodd" d="M19.444 9.36c-.882-4.925-2.854-6.378-3.903-6.378-1.636 0-2.056 1.217-5.54 1.258-3.484-.04-3.904-1.258-5.54-1.258-1.05 0-3.023 1.453-3.905 6.38-.503 2.81-1.05 7.01.252 7.513 1.62.627 2.168-.94 3.946-2.266 1.805-1.344 2.67-1.66 5.247-1.66 2.576 0 3.442.316 5.247 1.66 1.778 1.323 2.327 2.892 3.946 2.265 1.3-.504.755-4.7.25-7.514zM6 10c-1.105 0-2-.896-2-2 0-1.105.895-2 2-2s2 .895 2 2c0 1.104-.896 2-2 2zm7 0c-.553 0-1-.447-1-1s.447-1 1-1c.553 0 1 .447 1 1s-.447 1-1 1zm2-2c-.553 0-1-.447-1-1s.447-1 1-1c.553 0 1 .447 1 1s-.447 1-1 1z"/></svg>