<svg xmlns="http://www.w3.org/2000/svg" viewBox="0 0 20 20"><path d="M10 .4C4.705.4.4 4.707.4 10c0 5.293 4.305 9.6 9.6 9.6 5.293 0 9.6-4.307 9.6-9.6 0-5.293-4.307-9.6-9.6-9.6zm8.188 9.6c0 1.873-.636 3.6-1.696 4.98-.3-.234-.62-.867-.32-1.523.304-.66.383-2.188.313-2.783-.066-.594-.375-2.025-1.214-2.04-.837-.01-1.412-.288-1.91-1.282-1.033-2.068 1.94-2.465.906-3.61-.29-.32-1.783 1.323-2.002-.868-.014-.157.135-.392.336-.636 3.244 1.09 5.588 4.157 5.588 7.762zM8.875 1.893c-.196.382-.713.537-1.027.824-.684.62-.978.533-1.346 1.127-.37.594-1.567 1.45-1.567 1.88s.604.935.906.837c.303-.1 1.1-.093 1.568.07.47.167 3.914.333 2.816 3.245-.348.926-1.873.77-2.28 2.303-.06.225-.27 1.186-.284 1.5-.025.486.344 2.318-.125 2.318-.47 0-1.738-1.64-1.738-1.936 0-.297-.328-1.338-.328-2.23 0-.89-1.52-.877-1.52-2.062 0-1.068.824-1.6.64-2.113-.182-.51-1.628-.527-2.23-.59 1.052-2.73 3.53-4.758 6.515-5.172zM7.425 17.77c.49-.26.54-.596.987-.613.51-.023.925-.2 1.5-.326.51-.11 1.423-.628 2.226-.694.678-.055 2.015.035 2.375.69-1.295.86-2.848 1.362-4.514 1.362-.9 0-1.766-.15-2.576-.418z"/></svg>