<svg xmlns="http://www.w3.org/2000/svg" viewBox="0 0 20 20"><path d="M3.302 12.238c.464 1.88 1.054 2.7 3.022 3.562 1.97.86 2.904 1.8 3.676 1.8.77 0 1.648-.822 3.616-1.684 1.97-.86 1.443-1.123 1.907-3.002L10 15.6l-6.698-3.362zm16.21-4.902l-8.326-4.662c-.652-.365-1.72-.365-2.372 0L.488 7.336c-.652.365-.652.963 0 1.328l8.325 4.662c.652.365 1.72.365 2.372 0l5.382-3.014-5.836-1.367c-.224.055-.47.086-.73.086-1.052 0-1.904-.505-1.904-1.13 0-.627.853-1.133 1.904-1.133.816 0 1.51.307 1.78.734l6.182 2.03 1.55-.867c.65-.364.65-.962 0-1.327zm-2.545 8.834c-.065.385 1.283 1.018 1.41-.107.58-5.072-.415-6.53-.415-6.53l-1.395.78s1.183 1.125.4 5.857z"/></svg>