<svg xmlns="http://www.w3.org/2000/svg" viewBox="0 0 20 20"><path d="M17.924 17.315c-.057.174-.193.367-.416.432-.16.047-5.488 1.59-5.652 1.633-.47.125-.795.033-1.01-.156-.325-.287-4.092-2.85-8.844-3.092-.508-.025-.26-1.95 1.193-1.95.995 0 3.904.722 4.255.37.27-.272.394-1.88-.737-4.683L4.438 4.23c-.216-.535.044-1.143.578-1.36.535-.215 1.145.044 1.36.58L8.36 8.37c.194.48.432.662.69.562.232-.088.28-.242.14-.71L7.144 2.196c-.186-.546.106-1.138.652-1.324.547-.186 1.14.107 1.325.653l1.947 5.732c.172.504.354.768.642.646.172-.072.16-.337.114-.568l-1.366-5.47c-.14-.562.2-1.128.76-1.268.56-.14 1.126.2 1.267.76l1.26 5.043c.184.74.353 1.008.646.935.3-.073.286-.32.245-.522l-.872-4.328c-.103-.515.23-1.015.744-1.118.513-.103 1.014.23 1.116.743l.948 4.71.002.002.568 2.825c.124.533.266 1.035.45 1.527 1.085 2.89.52 5.564.334 6.143z"/></svg>