<svg xmlns="http://www.w3.org/2000/svg" viewBox="0 0 20 20"><path d="M17.19 4.156c-1.672-1.535-4.383-1.535-6.055 0L10 5.196l-1.136-1.04c-1.672-1.535-4.382-1.535-6.054 0-1.88 1.726-1.88 4.52 0 6.245L10 17l7.19-6.6c1.88-1.725 1.88-4.52 0-6.244zm-1.066 5.22L10 15.09 3.875 9.375c-.617-.567-.856-1.307-.856-2.094s.137-1.432.755-1.998c.545-.5 1.278-.777 2.063-.777.784 0 1.517.476 2.062.978L10 7.308l2.1-1.826c.545-.502 1.277-.978 2.062-.978s1.518.276 2.063.777c.618.567.755 1.213.755 2s-.238 1.528-.856 2.095z"/></svg>