<svg xmlns="http://www.w3.org/2000/svg" viewBox="0 0 20 20"><path d="M14.09 2.233C12.95 1.41 11.518 1 9.794 1c-1.31 0-2.418.29-3.317.868C5.05 2.774 4.292 4.313 4.2 6.483h3.307c0-.633.185-1.24.553-1.828.37-.586.995-.88 1.878-.88.898 0 1.517.24 1.854.714.34.476.508 1.003.508 1.58 0 .505-.252.966-.557 1.384-.167.244-.387.47-.66.674 0 0-1.794 1.15-2.58 2.074-.457.535-.498 1.338-.54 2.488 0 .082.03.252.316.252h2.57c.256 0 .31-.19.312-.274.018-.418.064-.633.14-.875.145-.457.54-.855.98-1.2l.91-.626c.822-.64 1.477-1.166 1.767-1.578.493-.677.84-1.51.84-2.5 0-1.616-.57-2.833-1.71-3.657zm-4.35 12.69c-1.138-.034-2.078.755-2.114 1.99-.035 1.235.858 2.052 1.998 2.085 1.19.035 2.104-.727 2.14-1.963.035-1.236-.833-2.076-2.023-2.11z"/></svg>