<svg xmlns="http://www.w3.org/2000/svg" viewBox="0 0 20 20"><path d="M10 .4C4.698.4.4 4.698.4 10s4.298 9.6 9.6 9.6c5.3 0 9.6-4.298 9.6-9.6S15.3.4 10 .4zm-.15 15.2h-.052c-.782-.024-1.334-.6-1.31-1.372.02-.758.586-1.31 1.342-1.31l.046.003c.804.024 1.35.595 1.327 1.388-.023.76-.578 1.29-1.354 1.29zm3.29-6.532c-.184.26-.588.586-1.098.983l-.562.388c-.308.24-.494.467-.563.688-.056.174-.082.22-.087.576v.09H8.685l.006-.182c.028-.744.046-1.184.355-1.547.485-.568 1.555-1.258 1.6-1.287.154-.115.283-.246.38-.387.224-.312.323-.556.323-.794 0-.334-.098-.643-.293-.916-.188-.266-.545-.398-1.06-.398-.513 0-.864.162-1.073.496-.216.34-.325.7-.325 1.067v.092h-2.21l.003-.096c.057-1.352.54-2.327 1.435-2.896.563-.36 1.264-.544 2.08-.544 1.07 0 1.973.26 2.683.772.72.52 1.086 1.297 1.086 2.31 0 .568-.18 1.1-.534 1.586z"/></svg>