<svg xmlns="http://www.w3.org/2000/svg" viewBox="0 0 20 20"><path d="M15.6 4.576V2.228C15.6 1.438 13.092 0 10 0 6.907 0 4.4 1.44 4.4 2.228v2.348c0 2.14 3.877 3.908 3.877 5.424 0 1.514-3.877 3.28-3.877 5.422v2.35C4.4 18.56 6.907 20 10 20c3.092 0 5.6-1.44 5.6-2.23v-2.35c0-2.14-3.877-3.907-3.877-5.42 0-1.516 3.877-3.283 3.877-5.424zM5.94 2.328c.697-.44 2-1.082 4.115-1.082 2.113 0 4.006 1.082 4.006 1.082.143.086.7.383.318.61-.838.496-2.478 1.02-4.378 1.02S6.516 3.38 5.676 2.882c-.38-.225.265-.555.265-.555zM10.5 10c0 1.193.997 1.96 2.052 2.986.77.748 1.826 1.773 1.826 2.435v1.33c-.97-.484-3.872-.956-3.872-2.505 0-.783-1.013-.783-1.013 0 0 1.55-2.902 2.02-3.872 2.504v-1.33c0-.66 1.057-1.687 1.827-2.434 1.055-1.025 2.05-1.793 2.05-2.986 0-1.193-.995-1.96-2.05-2.986-.77-.75-1.826-1.775-1.826-2.438l-.045-.998C6.6 4.13 8.227 4.656 10 4.656c1.772 0 3.406-.525 4.433-1.078l-.055.998c0 .662-1.056 1.688-1.826 2.438-1.054 1.025-2.05 1.793-2.05 2.986z"/></svg>