<svg xmlns="http://www.w3.org/2000/svg" viewBox="0 0 20 20"><path d="M19.253 9.542c-.388-.416-2.265-2.27-3.122-3.118C15.87 6.164 15.493 6 15.1 6H4.902c-.394 0-.77.165-1.033.424-.86.847-2.735 2.7-3.123 3.118-.485.52-.723.902-.624 1.45s.466 2.653.556 3.073c.087.42.683.935 1.24.935h16.16c.557 0 1.153-.516 1.242-.935.09-.42.457-2.527.556-3.074s-.14-.928-.625-1.448zm-5.24.46c-.1 0-.192.053-.237.134L12.966 12H7.034l-.81-1.864c-.044-.08-.136-.133-.237-.133H2.473L4.495 8h11.01l2.023 2.003h-3.514z"/></svg>