<svg xmlns="http://www.w3.org/2000/svg" viewBox="0 0 20 20"><path d="M15.902 5.6c-2.08 0-4.358 1.158-5.902 2.916C8.455 6.758 6.175 5.6 4.096 5.6 2.116 5.6 0 6.756 0 10c0 3.244 2.116 4.398 4.096 4.4 2.08 0 4.358-1.158 5.903-2.916 1.543 1.758 3.822 2.916 5.9 2.916 1.982 0 4.1-1.156 4.1-4.4 0-3.244-2.118-4.4-4.098-4.4zM4.096 12.64C2.584 12.64 1.8 11.753 1.8 10c0-1.752.784-2.64 2.296-2.64C5.77 7.36 7.71 8.444 8.903 10c-1.193 1.555-3.134 2.64-4.807 2.64zm11.806 0c-1.673 0-3.614-1.085-4.807-2.64 1.192-1.555 3.135-2.64 4.807-2.64 1.512 0 2.298.888 2.298 2.64 0 1.752-.786 2.64-2.298 2.64z"/></svg>