<svg xmlns="http://www.w3.org/2000/svg" viewBox="0 0 20 20"><path d="M10 .4C4.697.4.4 4.698.4 10c0 5.303 4.297 9.6 9.6 9.6 5.3 0 9.6-4.297 9.6-9.6 0-5.302-4.3-9.6-9.6-9.6zm.896 3.466c.936 0 1.21.543 1.21 1.164 0 .775-.62 1.492-1.678 1.492-.886 0-1.308-.445-1.282-1.182 0-.62.52-1.474 1.75-1.474zM8.498 15.75c-.64 0-1.107-.39-.66-2.094l.733-3.025c.128-.483.15-.677 0-.677-.19 0-1.02.334-1.51.664l-.32-.523c1.555-1.3 3.343-2.06 4.108-2.06.64 0 .746.755.427 1.92l-.84 3.18c-.15.56-.085.755.064.755.19 0 .82-.233 1.437-.72l.362.486c-1.514 1.512-3.163 2.094-3.802 2.094z"/></svg>