<svg xmlns="http://www.w3.org/2000/svg" viewBox="0 0 20 20"><path d="M17.69 4.725c-.502-2.977-3.22-4.967-6.068-4.44C8.772.808 6.366 3.1 6.87 6.078c.106.64.407 1.643.762 2.364l-5.175 7.723c-.19.285-.3.8-.242 1.14l.333 1.972c.058.34.372.57.7.513l1.516-.28c.328-.06.744-.35.924-.64l2.047-3.31.018-.023 1.386-.256 2.39-3.88c.784.14 1.91.093 2.577-.03 2.848-.526 4.087-3.67 3.584-6.65zm-2.524 1.527c-.784 1.17-1.584.346-2.703-.475-1.12-.818-2.135-1.322-1.352-2.492.785-1.17 2.327-1.455 3.448-.635 1.12.82 1.39 2.432.608 3.602z"/></svg>