<svg xmlns="http://www.w3.org/2000/svg" viewBox="0 0 20 20"><path fill-rule="evenodd" clip-rule="evenodd" d="M16.432 15C14.387 9.893 12 8.547 12 6V3h.5c.276 0 .5-.224.5-.5v-1c0-.276-.224-.5-.5-.5h-5c-.276 0-.5.224-.5.5v1c0 .276.224.5.5.5H8v3c0 2.547-2.387 3.893-4.432 9-.65 1.625-2.323 4 6.432 4s7.083-2.375 6.432-4zm-1.617 1.75c-.702.21-2.1.45-4.815.45s-4.113-.24-4.815-.45c-.25-.073-.346-.362-.258-.627.22-.67.635-1.828 1.41-3.12 1.897-3.16 3.864.496 5.5.496 1.638 0 1.19-1.562 1.825-.498.774 1.294 1.19 2.45 1.41 3.12.09.266-.008.554-.257.63z"/></svg>