<svg xmlns="http://www.w3.org/2000/svg" viewBox="0 0 20 20"><path d="M4.902.25c-1.404-.277-2.787.625-3.07 2.023C.73 7.728.73 12.27 1.833 17.727 2.08 18.952 3.17 19.8 4.39 19.8c.17 0 .342-.016.515-.05 1.412-.28 2.33-1.638 2.046-3.036-.98-4.832-.98-8.598 0-13.43C7.23 1.888 6.313.53 4.9.25zM17 2H8.436c.073.467.08.95-.017 1.44-.937 4.72-.937 8.398 0 13.12.097.49.09.973.016 1.44H17c1.1 0 2-.9 2-2V4c0-1.1-.9-2-2-2zm-5 12.5c-.828 0-1.5-.672-1.5-1.5s.672-1.5 1.5-1.5 1.5.672 1.5 1.5-.672 1.5-1.5 1.5zM17 9h-7V5h7v4z"/></svg>