<svg xmlns="http://www.w3.org/2000/svg" viewBox="0 0 20 20"><path d="M19.753 10.91c-.624-1.708-2.366-2.727-4.66-2.727-.09 0-.177.002-.263.006l-.016-2.064 3.525-.607s.132-.12.108-.232c-.023-.11-.167-.883-.188-.976-.027-.13-.102-.127-.207-.11-.104.02-3.25.462-3.25.462l-.013-2.078c0-.125-.07-.158-.194-.156l-1.025.016c-.104.002-.163.05-.16.148 0 .1.032 2.307.032 2.307s-3.06.528-3.144.544c-.084.014-.17.053-.15.143.018.09.19 1.094.207 1.172.018.08.072.128.188.106l2.924-.504.035 2.018c-1.077.28-1.8.824-2.256 1.303-.768.807-1.207 1.887-1.207 2.963 0 1.586.97 2.53 2.327 2.695 3.162.388 5.12-3.06 5.77-4.714 1.096 1.506.255 4.354-2.095 5.98-.043.03-.098.13-.033.207l.618.756c.08.095.206.058.256.022 2.51-1.73 3.66-4.515 2.87-6.683zm-7.386 3.187c-.966-.12-.944-.914-.944-1.453 0-.773.327-1.58.876-2.156.334-.354.75-.62 1.228-.8l.082 4.278c-.385.13-.8.185-1.243.13zm2.427-.553l.046-4.11c.084-.003.166-.01.252-.01.773 0 1.494.146 1.885.362.39.217-1.023 2.713-2.183 3.758zm-8.95-7.668c-.03-.094-.103-.145-.196-.145h-1.95c-.093 0-.165.052-.194.145L.008 16.915c-.017.052-.01.077.062.077h1.733c.075 0 .1-.023.114-.072l1.008-3.318H6.42s.993 3.268 1.01 3.318c.015.05.038.072.112.072h1.734c.072 0 .078-.025.062-.076-.014-.05-3.083-9.74-3.494-11.04zm-2.618 6.318l1.447-5.25 1.447 5.25H3.226z"/></svg>