<svg xmlns="http://www.w3.org/2000/svg" viewBox="0 0 20 20"><path d="M16.788 3.212c-3.75-3.75-9.827-3.75-13.575 0-3.75 3.75-3.75 9.828-.002 13.576 3.75 3.75 9.83 3.75 13.58 0 3.747-3.75 3.747-9.827-.002-13.576zm-10.04 10.04c-1.797-1.797-1.797-4.71 0-6.505 1.795-1.796 4.71-1.796 6.506 0 1.797 1.797 1.795 4.71 0 6.505-1.797 1.797-4.71 1.797-6.506 0zm8.6-.373c.967-1.8.968-3.96 0-5.76l1.782-.96c1.29 2.39 1.29 5.29.002 7.678l-1.785-.96zm-1.51-10.01l-.96 1.783c-1.8-.967-3.96-.967-5.756 0l-.96-1.783c2.39-1.288 5.286-1.288 7.677 0zM2.87 6.16l1.784.96c-.968 1.8-.968 3.958 0 5.757l-1.785.96c-1.29-2.388-1.288-5.286 0-7.677zm3.29 10.97l.96-1.784c1.8.97 3.96.97 5.76 0l.96 1.785c-2.392 1.288-5.29 1.288-7.68 0z"/></svg>