<svg xmlns="http://www.w3.org/2000/svg" viewBox="0 0 20 20"><path d="M10 6.797c-1.775 0-3.2 1.426-3.2 3.2 0 1.774 1.425 3.2 3.2 3.2 1.774 0 3.2-1.426 3.2-3.2 0-1.774-1.426-3.2-3.2-3.2zm0 5.25c-1.133 0-2.05-.916-2.05-2.05 0-1.132.917-2.05 2.05-2.05 1.132 0 2.05.918 2.05 2.05 0 1.134-.92 2.05-2.05 2.05zM15 5c-.312-.312-.883-.248-1.273.142-.39.39-.453.96-.14 1.272s.88.25 1.272-.14c.39-.39.452-.962.14-1.274zm-9.858 8.73c-.39.39-.454.958-.142 1.27s.882.25 1.273-.14c.39-.392.454-.962.142-1.274s-.883-.248-1.273.143zM5 5c-.312.312-.25.883.14 1.273.392.39.962.453 1.274.14s.25-.882-.142-1.272C5.882 4.753 5.312 4.69 5 5zm8.727 9.857c.39.39.96.455 1.273.143s.25-.883-.142-1.274c-.39-.39-.96-.453-1.273-.14s-.248.88.142 1.27zM10 4.997c.44 0 .8-.446.8-1 0-.552-.36-.997-.8-.997-.442 0-.8.445-.8.998 0 .553.357 1 .8 1zM10 17c.44 0 .8-.447.8-1 0-.553-.358-.998-.8-.998-.44 0-.8.445-.8.998 0 .553.357 1 .8 1zm-5-7c0-.44-.45-.8-1.003-.8-.553 0-.997.36-.997.8 0 .442.444.8.997.8C4.55 10.8 5 10.442 5 10zm12 0c0-.44-.448-.8-1-.8-.554 0-1 .36-1 .8 0 .442.446.8 1 .8.552 0 1-.358 1-.8z"/></svg>