<svg xmlns="http://www.w3.org/2000/svg" viewBox="0 0 20 20"><path fill-rule="evenodd" clip-rule="evenodd" d="M7.186 19.172c.79.51 1.7.855 2.814.828 1.11.027 2.025-.318 2.814-.828L12.797 17H7.203l-.017 2.172zM12.696 16c0-4.357 4.63-5.848 4.284-10.188-.218-2.738-2.073-5.81-6.98-5.81s-6.762 3.072-6.98 5.81C2.67 10.153 7.302 11.643 7.302 16h5.394zM5 6c.207-2.598 2.113-4 5-4 2.886 0 4.654 1.37 4.86 3.97.114 1.423-.704 2.372-1.808 3.925C12.238 11.04 11.45 12.238 11 14H9c-.45-1.762-1.238-2.96-2.053-4.106C5.844 8.342 4.887 7.424 5 6z"/></svg>