<svg xmlns="http://www.w3.org/2000/svg" viewBox="0 0 20 20"><path d="M.69 11.33l1.363.34 1.026-1.612-1.95-.482c-.49-.12-.982.174-1.103.66-.12.483.175.973.663 1.095zm17.79.262l-4.462 4.016-5.247-4.06c-.1-.077-.214-.134-.337-.163l-.698-.174-1.027 1.612 1.1.273 5.697 4.408c.166.127.362.19.56.19.218 0 .437-.08.608-.233l5.028-4.527c.373-.334.402-.906.065-1.277-.337-.37-.91-.4-1.284-.064zM8.685 7.18l4.887 3.13c.414.263.962.153 1.24-.247L19.84 2.82c.286-.41.183-.976-.23-1.26-.415-.284-.98-.18-1.266.23l-4.528 6.522-4.916-3.147c-.204-.13-.45-.174-.688-.123-.236.053-.442.197-.57.4L.14 17.21c-.27.42-.144.982.28 1.25.15.095.32.14.486.14.3 0 .596-.15.768-.42l7.008-11z"/></svg>