<svg xmlns="http://www.w3.org/2000/svg" viewBox="0 0 20 20"><path d="M7.86 14.69l-.81.806c-.702.695-1.844.695-2.546 0-.336-.334-.52-.78-.52-1.252 0-.473.185-.916.52-1.252l2.98-2.955c.617-.613 1.78-1.515 2.626-.675.39.386 1.016.384 1.403-.005.385-.39.383-1.017-.006-1.402-1.438-1.428-3.566-1.164-5.42.675l-2.98 2.956C2.394 12.296 2 13.24 2 14.244c0 1.006.394 1.95 1.108 2.658.736.73 1.702 1.096 2.67 1.096.966 0 1.933-.365 2.668-1.096l.81-.805c.39-.385.392-1.012.006-1.4-.387-.388-1.014-.39-1.403-.006zm9.03-11.483c-1.546-1.534-3.708-1.617-5.138-.197l-1.01 1.002c-.388.386-.39 1.013-.005 1.4.386.39 1.013.392 1.402.006l1.01-1c.74-.737 1.71-.432 2.345.196.336.335.522.78.522 1.252s-.186.917-.522 1.25l-3.18 3.155c-1.454 1.442-2.136.767-2.427.478-.39-.386-1.016-.383-1.4.005-.387.39-.385 1.017.004 1.4.668.663 1.43.99 2.228.99.977 0 2.01-.49 2.993-1.466l3.18-3.153C17.605 7.814 18 6.87 18 5.866c0-1.005-.395-1.95-1.11-2.66z"/></svg>