<svg xmlns="http://www.w3.org/2000/svg" viewBox="0 0 20 20"><path d="M12.165 17.86c-.028.31.217.584.545.61l3.985.327c.33.027.62-.203.65-.512l.31-3.287-5.18-.426-.31 3.288zM2.345 15l.31 3.286c.03.31.322.54.65.512l3.986-.326c.33-.027.574-.303.547-.61l-.312-3.288-5.18.425zM1.83 9.582l.322 3.39 5.18-.425-.32-3.387C7.003 9.08 7 8.996 7 8.91c0-1.554 1.346-2.82 3-2.82s3 1.267 3 2.82c0 .085-.004.17-.012.25l-.32 3.388 5.18.426.32-3.39c.022-.226.03-.45.03-.673C18.2 4.66 14.523 1.2 10 1.2S1.8 4.66 1.8 8.91c0 .224.01.448.03.673z"/></svg>