<svg xmlns="http://www.w3.org/2000/svg" viewBox="0 0 20 20"><path d="M10 4c1.104 0 2-.896 2-2 0-1.105-.896-2-2-2S8 .895 8 2c0 1.104.896 2 2 2zm5.978 7.583c-.385-1.775-1.058-4.688-2.042-5.894C12.98 4.515 11.05 4.466 10 4.466c-1.05 0-2.98.05-3.936 1.222-.984 1.205-1.657 4.118-2.042 5.893-.213.983 1.154 1.344 1.51.355.532-1.473.942-2.71 1.84-3.736C7.844 11.11 6.102 16.168 6 19c0 .552.448 1 1 1 .426 0 .79-.266.934-.642C8.39 17.77 10 13.355 10 13.355s1.61 4.416 2.066 6.003c.144.376.508.642.934.642.552 0 1-.448 1-1-.102-2.832-1.844-7.89-1.372-10.797.898 1.026 1.308 2.263 1.84 3.736.355.987 1.723.626 1.51-.357z"/></svg>