<svg xmlns="http://www.w3.org/2000/svg" viewBox="0 0 20 20"><path d="M19.58 5.84c-.042-.47-.46-.803-.92-.73C16.92 5.388 12.836 7 10 7S3.08 5.388 1.34 5.11c-.46-.073-.877.26-.92.73C.276 7.37 0 11.45 0 12.067c0 .83 3.472 2.732 6 2.732 2.452 0 2.95-2.732 4-2.732s1.548 2.732 4 2.732c2.528 0 6-1.902 6-2.732 0-.618-.277-4.697-.42-6.228zM7.66 10.72c-.353.318-1.335 1.07-2.53.835-1.197-.235-1.92-1.323-2.167-1.758-.06-.106-.04-.24.044-.317.353-.318 1.335-1.07 2.532-.835 1.195.235 1.918 1.323 2.165 1.758.06.106.04.24-.045.317zm9.377-.923c-.246.436-.97 1.523-2.166 1.758-1.195.235-2.178-.517-2.53-.835-.086-.077-.104-.21-.045-.317.246-.436.97-1.523 2.166-1.758 1.197-.235 2.18.517 2.532.835.086.077.105.21.045.317z"/></svg>