<svg xmlns="http://www.w3.org/2000/svg" viewBox="0 0 20 20"><path d="M10 10c.528 0 1.026.104 1.504.256L5.427 1.14C5.367 1.054 5.27 1 5.164 1H1.608c-.117 0-.188.13-.122.23l6.23 9.346C8.405 10.22 9.174 10 10 10zm8.392-9h-3.556c-.106 0-.204.053-.263.14L10.75 6.876l2 3 5.764-8.646c.065-.1-.005-.23-.122-.23zM10 11c-2.21 0-4 1.79-4 4s1.79 4 4 4 4-1.79 4-4-1.79-4-4-4zm2.112 4.117c.062.064.052.158-.022.208-.074.05-.095.153-.05.23.048.075.02.164-.064.198s-.125.13-.095.214-.016.165-.103.18-.15.102-.137.19-.05.158-.14.155c-.09-.003-.167.068-.174.156s-.083.144-.17.123-.177.032-.202.118-.11.124-.19.085c-.08-.04-.18-.006-.223.072s-.133.098-.204.043-.175-.044-.232.024-.15.068-.21 0-.16-.08-.23-.024-.163.035-.206-.043-.142-.11-.222-.072c-.08.04-.166 0-.19-.085s-.117-.138-.204-.117-.163-.033-.17-.122-.083-.16-.172-.157c-.09.004-.152-.066-.14-.154s-.05-.173-.137-.19-.135-.096-.104-.18-.014-.18-.096-.214-.11-.123-.065-.2c.046-.075.024-.178-.05-.228-.074-.05-.083-.144-.022-.208.062-.064.062-.17 0-.234s-.052-.158.022-.208.095-.153.05-.23c-.048-.075-.02-.164.064-.198s.125-.13.095-.214.016-.165.103-.18.15-.102.137-.19.05-.158.14-.155c.09.003.167-.068.174-.156s.083-.143.17-.122.177-.03.202-.117.11-.123.19-.084c.08.04.18.006.223-.072s.133-.098.204-.043.175.045.232-.023.15-.068.21 0 .16.08.23.024.163-.034.206.044.142.11.222.072c.08-.04.166 0 .19.085s.117.14.204.118.163.034.17.123.084.16.173.157c.09-.003.153.067.14.155s.05.173.138.19.135.096.104.18.013.18.095.214.11.123.065.2c-.047.075-.025.178.05.228s.082.144.02.208-.062.17 0 .235z"/></svg>