<svg xmlns="http://www.w3.org/2000/svg" viewBox="0 0 20 20"><path d="M5.274 6.915c.2 0 .394.03.576.086.69-.772 1.455-1.476 2.283-2.1-.035-.145-.054-.298-.054-.454 0-.217.035-.426.1-.62C7.253 3.16 6.245 2.6 5.17 2.17c-1.005.622-1.882 1.432-2.582 2.382.52.92 1.136 1.777 1.838 2.557.256-.125.543-.195.848-.195zM3.316 8.872c0-.275.058-.537.16-.773-.63-.693-1.198-1.437-1.696-2.23C1.155 7.112.8 8.515.8 10c0 1.72.474 3.33 1.295 4.706.294-1.654.85-3.22 1.62-4.652-.25-.328-.4-.74-.4-1.182zm6.72-6.383c.517 0 .985.2 1.336.528 1.02-.44 2.096-.777 3.215-.992C13.237 1.246 11.67.8 10 .8c-1.14 0-2.23.21-3.236.588.8.395 1.56.855 2.277 1.375.293-.174.632-.274.996-.274zm2.926 9.218c.122-.254.295-.48.51-.656-.58-1.777-1.494-3.404-2.673-4.803-.235.1-.493.153-.765.153-.425 0-.816-.137-1.137-.365-.71.54-1.367 1.143-1.964 1.803.188.3.297.653.297 1.032 0 .203-.03.4-.09.586 1.718 1.146 3.695 1.934 5.822 2.25zm2.54 2.643c.025.372.04.745.04 1.122 0 .664-.042 1.318-.122 1.96 1.56-1.138 2.748-2.757 3.347-4.638-.71.172-1.438.295-2.18.365-.174.536-.573.968-1.086 1.19zm-2.998-1.326c-2.272-.377-4.377-1.244-6.21-2.484-.298.182-.647.29-1.02.29-.14 0-.273-.015-.403-.042-.876 1.662-1.437 3.517-1.598 5.484.876.94 1.944 1.697 3.145 2.205 1.492-2.293 3.576-4.19 6.087-5.453zm3.672-9.843c-1.475.144-2.883.515-4.193 1.07.006.065.01.13.01.196 0 .31-.074.6-.2.86 1.31 1.538 2.326 3.33 2.968 5.29.798.016 1.478.502 1.77 1.195.887-.09 1.75-.26 2.58-.503.06-.42.09-.85.09-1.287 0-2.704-1.166-5.136-3.024-6.82zM13.49 14.07c-2.345 1.097-4.305 2.788-5.724 4.855.715.18 1.463.275 2.234.275 1.387 0 2.702-.31 3.882-.86.19-.927.29-1.886.29-2.868 0-.355-.016-.707-.043-1.055-.237-.076-.454-.193-.64-.348z"/></svg>