<svg xmlns="http://www.w3.org/2000/svg" viewBox="0 0 20 20"><path d="M18.69 12.344l-1.727-1.538c-.5-.445-.5-1.174 0-1.62L18.69 7.65c.5-.445.367-.86-.296-.924l-2.29-.217c-.662-.062-1.02-.633-.79-1.266l1.214-3.382c.228-.635-.05-.865-.62-.514l-2.7 1.67c-.568.354-1.303.16-1.63-.426l-.98-1.746C10.27.254 9.73.252 9.393.834l-.91 1.58c-.336.585-1.107.833-1.712.556l-1.6-.734c-.608-.28-1.073.042-1.037.716l.086 1.615c.036.674-.462 1.367-1.105 1.54l-1.545.415c-.642.174-.76.68-.26 1.125l1.727 1.54c.5.444.5 1.173 0 1.618l-1.727 1.54c-.5.444-.368.876.293.956l2.095.255c.66.08 1.03.67.818 1.31l-1.074 3.26c-.21.64.09.888.668.554l2.463-1.427c.578-.334 1.356-.15 1.73.408l1.02 1.54c.373.56.932.53 1.24-.068l.9-1.733c.31-.6 1.052-.843 1.648-.544l1.735.867c.598.297 1.057-.01 1.02-.682l-.086-1.616c-.036-.674.46-1.365 1.105-1.54l1.543-.415c.644-.175.762-.68.262-1.126zM11 14H9v-2h2v2zm0-3H9V6h2v5z"/></svg>