<svg xmlns="http://www.w3.org/2000/svg" viewBox="0 0 20 20"><path d="M17.256 12.253c-.096-.667-.61-1.187-1.274-1.342-2.577-.603-3.223-2.087-3.332-3.733C12.193 7.092 11.38 7 10 7s-2.193.092-2.65.177c-.11 1.646-.755 3.13-3.332 3.734-.663.157-1.178.676-1.274 1.343l-.497 3.442C2.072 16.907 2.962 18 4.2 18h11.6c1.237 0 2.128-1.093 1.953-2.305l-.497-3.442zM10 15.493c-1.395 0-2.526-1.12-2.526-2.5s1.13-2.5 2.526-2.5 2.526 1.12 2.526 2.5-1.132 2.5-2.526 2.5zM19.95 6c-.024-1.5-3.842-4-9.95-4C3.89 2 .073 4.5.05 6s.02 3.452 2.535 3.127c2.94-.38 2.76-1.408 2.76-2.876 0-1.023 2.392-1.27 4.655-1.27s4.654.247 4.655 1.27c0 1.47-.18 2.496 2.76 2.877C19.928 9.452 19.973 7.5 19.95 6z"/></svg>