<svg xmlns="http://www.w3.org/2000/svg" viewBox="0 0 20 20"><path d="M10.595 5.196l.446 1.37c.37-.315.836-.598 1.442-.794.59-.192 1.11-.3 1.582-.362l-.43-1.323c-.476.07-1 .18-1.58.368-.578.188-1.055.45-1.46.74zm.927 2.855l.446 1.372c.37-.316.835-.6 1.44-.795.59-.192 1.112-.3 1.583-.362l-.43-1.323c-.475.07-1 .18-1.58.368-.577.187-1.053.45-1.458.74zm.928 2.855l.446 1.37c.37-.315.835-.598 1.44-.794.59-.19 1.112-.3 1.583-.36l-.43-1.324c-.477.07-1.002.18-1.58.368-.58.187-1.056.45-1.46.74zm-7.062 2.172l.43 1.323c.417-.226.902-.445 1.492-.636.606-.197 1.15-.242 1.633-.203l-.446-1.37c-.5.002-1.038.07-1.615.257-.58.188-1.07.406-1.494.63zm-1.855-5.71l.43 1.324c.417-.225.902-.443 1.492-.635.606-.197 1.15-.242 1.633-.203L6.643 6.48c-.5.003-1.038.07-1.616.258-.58.188-1.07.406-1.494.63zm.927 2.856l.43 1.323c.417-.226.902-.445 1.492-.636.606-.197 1.15-.242 1.633-.203L7.57 9.335c-.5.002-1.038.07-1.615.257-.58.188-1.07.407-1.495.63zm6.604-8.813C9.34 1.97 8.44 3.162 8.01 3.97c-.82-.4-2.25-.836-3.972-.276C1.515 4.514.068 6.32.068 6.32L4.165 18.91c.126.387.646.477.878.143.5-.718 1.46-1.657 3.257-2.24 1.717-.56 2.968.053 3.654.577.272.208.662.06.762-.268.252-.828.907-2.04 2.61-2.594 1.8-.585 3.13-.39 3.956-.1.385.134.75-.242.625-.63L15.82 1.204s-2.233-.612-4.756.207zm-.113 13.846c-.818-.244-1.9-.358-3.14.044-1.25.406-2.127.95-2.7 1.404L1.867 6.722c.358-.358 1.187-1.042 2.662-1.52 1.39-.452 2.528-.066 3.28.377l3.143 9.676zm6.895-2.69c-.73-.03-1.76.045-3.01.452-1.24.403-2.048 1.132-2.567 1.81L9.124 5.15c.346-.8 1.04-1.78 2.43-2.232 1.474-.48 2.547-.413 3.047-.334l3.245 9.983z"/></svg>