<svg xmlns="http://www.w3.org/2000/svg" viewBox="0 0 20 20"><path d="M14.69 2.66c-1.894-1.378-3.242-1.348-3.754-1.265-.144.023-.265.106-.35.223l-4.62 6.374-2.263 3.123c-.277.382-.437.836-.462 1.307l-.295 5.624c-.02.405.382.698.76.553l5.256-2.01c.444-.17.83-.466 1.107-.85l1.844-2.545 5.037-6.95c.09-.122.125-.272.1-.422-.084-.526-.487-1.802-2.357-3.162zM8.977 15.466l-2.043.79c-.08.03-.17.005-.22-.063-.264-.335-.577-.667-1.076-1.03-.5-.362-.91-.558-1.31-.706-.08-.03-.13-.106-.126-.192l.122-2.186.55-.755s1.228-.17 2.832.998c1.602 1.167 1.82 2.39 1.82 2.39l-.55.755z"/></svg>