<svg xmlns="http://www.w3.org/2000/svg" viewBox="0 0 20 20"><path d="M4.774 15.287l-2.105 3.25.223 1.063 1.06-.227 2.104-3.248c-.224-.12-.446-.248-.66-.39-.22-.14-.427-.292-.623-.448zm8.912-1.135c.014-.03.023-.06.036-.092.053-.117.1-.234.138-.357l.016-.064c.04-.137.072-.27.098-.41v-.02c.195-1.17-.145-2.473-.923-3.65l1.11-1.715c1.28.163 2.386-.16 2.918-.982.923-1.423-.2-3.792-2.505-5.293C12.266.068 9.65.005 8.73 1.426c-.535.824-.38 1.967.292 3.073L7.91 6.212c-1.39-.233-2.716-.016-3.703.64-.006.002-.013.004-.017.008-.115.08-.227.165-.332.255-.017.014-.037.027-.05.04-.1.085-.187.18-.272.273-.02.024-.048.045-.067.07-.107.12-.205.25-.29.385-1.385 2.133-.204 5.36 2.632 7.21 2.838 1.847 6.26 1.613 7.64-.52.088-.135.168-.276.234-.42zm-.815-9.958c-.886-.577-1.32-1.487-.964-2.036.354-.547 1.36-.522 2.246.055.89.577 1.318 1.49.965 2.036-.353.546-1.358.52-2.246-.056z"/></svg>