<svg xmlns="http://www.w3.org/2000/svg" viewBox="0 0 20 20"><path d="M12.825 10.653c.118-.258.445-.497.727-.53s.54-.29.57-.57c.035-.28.273-.61.53-.728.258-.12.423-.443.37-.72-.06-.278.067-.663.275-.854.21-.193.266-.552.127-.8-.14-.246-.14-.65 0-.897.14-.25.082-.608-.127-.8-.208-.194-.333-.578-.276-.855.055-.278-.11-.603-.368-.722-.256-.12-.495-.445-.53-.727-.032-.28-.29-.54-.57-.573-.282-.033-.61-.272-.727-.528-.12-.26-.444-.424-.722-.367-.278.055-.662-.07-.854-.278-.194-.21-.554-.266-.8-.127s-.653.14-.9 0c-.246-.14-.605-.085-.8.125-.19.208-.575.333-.854.278-.277-.055-.602.11-.72.368-.12.256-.446.495-.728.527-.282.035-.54.292-.572.573-.034.28-.27.608-.53.726-.255.12-.42.444-.365.722.056.277-.07.662-.277.854s-.266.552-.127.8c.14.247.14.652 0 .898-.14.248-.082.607.127.802.21.19.333.575.278.854-.055.277.11.602.367.72.258.12.495.447.528.727.034.283.29.54.572.573s.61.272.728.53c.118.255.443.42.72.365.278-.055.663.07.854.278.193.208.552.266.8.127.246-.14.65-.14.898 0s.607.08.8-.127c.193-.21.576-.333.854-.278.28.056.604-.11.723-.365zM10 9.4C8.122 9.4 6.6 7.875 6.6 6c0-1.878 1.522-3.4 3.4-3.4S13.4 4.12 13.4 6c0 1.876-1.523 3.4-3.4 3.4zm-4.025 2.01l-1.243 7.048 3.128-.464 2.78 1.506 1.24-7.02c-.598.172-1.228.27-1.88.27-1.51 0-2.9-.502-4.025-1.34zm7.986.047c-.31.226-.64.426-.99.597l-.747 4.236 3.37-1.828-1.632-3.005z"/></svg>