<svg xmlns="http://www.w3.org/2000/svg" viewBox="0 0 20 20"><path d="M19.388.405c-.11-.314-.454-.48-.77-.37-.314.108-.48.454-.37.77.928 2.67-.916 4.663-2.322 5.73l-.568-.813c-.19-.273-.618-.5-.95-.504l-3.188.014c-.332-.006-.825.146-1.097.338L.73 12.157c-.456.32-.566.947-.248 1.404l4.27 6.11c.32.454.83.4 1.286.08l9.394-6.587c.27-.19.582-.603.692-.918l.998-3.145c.11-.314.043-.793-.148-1.066l-.346-.496c1.888-1.447 3.848-4.004 2.76-7.133zm-4.37 9.358c-.728.51-1.732.332-2.24-.396-.512-.73-.334-1.734.394-2.246.578-.404 1.328-.375 1.868.018-.272.164-.46.26-.494.275-.3.143-.43.504-.288.805.104.22.32.348.547.348.086 0 .174-.02.257-.06.194-.09.402-.2.62-.33.096.595-.14 1.218-.665 1.587z"/></svg>