<svg xmlns="http://www.w3.org/2000/svg" viewBox="0 0 20 20"><path d="M14.25.438L.437 14.25c-.584.585-.584 1.54.002 2.125l3.185 3.187c.584.584 1.54.586 2.124.002L19.56 5.75c.584-.584.584-1.54 0-2.124L16.376.438c-.587-.586-1.542-.583-2.127 0zM3.93 15.312l-.76.76-1.896-1.898.76-.76 1.895 1.898zm3.035 0l-.76.76-3.414-3.416.76-.76 3.415 3.416zm0-3.036l-.76.76-1.897-1.897.76-.76 1.897 1.896zm1.518-1.518l-.76.76L5.83 9.62l.76-.76 1.895 1.898zm3.035 0l-.76.76-3.413-3.415.76-.76 3.413 3.415zm0-3.035l-.76.76-1.895-1.897.76-.76 1.895 1.897zm1.518-1.517l-.76.76-1.896-1.898.76-.76 1.896 1.898zm3.036 0l-.76.76-3.414-3.416.76-.76 3.414 3.416zm0-3.035l-.76.76-1.896-1.898.76-.758L16.07 3.17z"/></svg>