<svg xmlns="http://www.w3.org/2000/svg" viewBox="0 0 20 20"><path d="M8.38 5.59c0-2.038-1.652-3.69-3.69-3.69S1 3.552 1 5.59c0 2.038 1.652 3.69 3.69 3.69.96 0 1.826-.376 2.483-.976L9 9.99l.012.01-.004.003-1.836 1.693c-.656-.6-1.522-.976-2.482-.976-2.038 0-3.69 1.652-3.69 3.69 0 2.038 1.652 3.69 3.69 3.69s3.69-1.652 3.69-3.69c0-.297-.044-.582-.11-.858l2.843-1.99 4.127 3.064c2.212 1.55 3.76-.663 3.76-.663L8.27 6.448c.065-.276.11-.56.11-.858zm-3.69 1.8c-.994 0-1.8-.806-1.8-1.8s.806-1.8 1.8-1.8 1.8.806 1.8 1.8-.806 1.8-1.8 1.8zm0 8.82c-.994 0-1.8-.806-1.8-1.8s.806-1.8 1.8-1.8 1.8.806 1.8 1.8-.806 1.8-1.8 1.8zM19 6.038s-1.548-2.212-3.76-.663L12.035 7.61l2.354 1.648L19 6.038z"/></svg>