<svg xmlns="http://www.w3.org/2000/svg" viewBox="0 0 20 20"><path d="M6.8 10c0 1.768 1.433 3.2 3.2 3.2 1.768 0 3.2-1.432 3.2-3.2 0-1.767-1.432-3.2-3.2-3.2S6.8 8.233 6.8 10zM4.53 8.8C5.077 6.284 7.317 4.4 10 4.4c1.546 0 2.945.627 3.96 1.64.468.47 1.228.47 1.696 0 .47-.47.47-1.23 0-1.697C14.21 2.896 12.21 2 10 2 6.418 2 3.386 4.354 2.367 7.6H0V10h3.2c.998 0 1.244-.813 1.33-1.2zM16.8 10c-1 0-1.245.814-1.33 1.2-.548 2.515-2.788 4.4-5.47 4.4-1.547 0-2.946-.628-3.96-1.642-.468-.47-1.228-.47-1.697 0-.468.47-.468 1.23 0 1.697C5.79 17.105 7.79 18 10 18c3.582 0 6.613-2.356 7.633-5.6H20V10h-3.2z"/></svg>