<svg xmlns="http://www.w3.org/2000/svg" viewBox="0 0 20 20"><path d="M18.4 7H13.39L11.58 8.812c-.453.453-1.056.702-1.696.702-.642 0-1.244-.25-1.698-.703-.452-.45-.702-1.053-.703-1.694 0-.04.01-.077.01-.116H1.6c-.332 0-.6.268-.6.6V10h18V7.6c0-.332-.27-.6-.6-.6zm-7.632 1l5.055-5.056c.235-.234.237-.613.002-.85l-.92-.92c-.234-.233-.614-.232-.85 0L9 6.232c-.488.49-.488 1.28 0 1.77.488.486 1.28.487 1.768 0zm-6.945 9.27c.097.402.515.73.927.73h10.5c.412 0 .83-.328.927-.73L17.7 11H2.3l1.523 6.27z"/></svg>