<svg xmlns="http://www.w3.org/2000/svg" viewBox="0 0 20 20"><path d="M18.12 3.27c-.294-.255-1.905-1.73-2.206-1.99-.3-.26-.756-.28-1.102-.28H5.188c-.345 0-.802.02-1.102.28-.3.26-1.912 1.736-2.207 1.99-.298.257-.544.644-.465 1.193.08.55 1.89 13.66 1.937 13.973.046.31.318.557.648.564h12c.33-.007.602-.253.648-.565.047-.31 1.858-13.422 1.938-13.973.078-.548-.168-.935-.465-1.19zM10 11.974c-3.248 0-3.943-4.596-4.087-5.543H7.75c.276 1.38.904 3.744 2.25 3.744s1.975-2.363 2.25-3.744h1.838c-.145.947-.84 5.543-4.088 5.543zM3.17 4.006L5 2h10l1.83 2.006H3.17z"/></svg>