<svg xmlns="http://www.w3.org/2000/svg" viewBox="0 0 20 20"><path d="M6.123 7.25L6.913 2H2.8L1.08 6.5C1.03 6.66 1 6.826 1 7c0 1.104 1.15 2 2.57 2 1.31 0 2.394-.764 2.553-1.75zM10 9c1.42 0 2.57-.896 2.57-2 0-.04-.002-.082-.004-.12L12.056 2H7.944l-.51 4.875c-.002.04-.004.082-.004.125 0 1.104 1.15 2 2.57 2zm5 1.046V14H5v-3.948c-.438.158-.92.248-1.43.248-.194 0-.383-.023-.57-.05v6.35c0 .77.63 1.4 1.398 1.4H15.6c.77 0 1.4-.63 1.4-1.4v-6.348c-.188.025-.376.05-.57.05-.507-.002-.99-.094-1.43-.256zM18.92 6.5L17.2 2h-4.114l.79 5.242C14.03 8.232 15.113 9 16.43 9 17.85 9 19 8.104 19 7c0-.174-.028-.34-.08-.5z"/></svg>