<svg xmlns="http://www.w3.org/2000/svg" viewBox="0 0 20 20"><path d="M15.093 6.694h.92v2.862L20 5.532l-3.988-4.025v2.387h-.92c-3.694 0-5.776 2.738-7.614 5.152-1.652 2.172-3.08 4.05-5.386 4.05H0v2.798h2.093c3.694 0 5.776-2.736 7.614-5.152 1.652-2.173 3.08-4.048 5.386-4.048zM5.41 8.458c.158-.203.316-.412.477-.623.39-.514.804-1.055 1.252-1.596-1.323-1.235-2.916-2.145-5.047-2.145H0v2.8h2.093c1.327 0 2.362.622 3.317 1.563zm10.602 4.836h-.92c-1.407 0-2.487-.7-3.49-1.738l-.304.397c-.44.58-.915 1.2-1.44 1.818 1.357 1.325 3 2.325 5.233 2.325h.92v2.398L20 14.468l-3.988-4.025v2.85z"/></svg>