<svg xmlns="http://www.w3.org/2000/svg" viewBox="0 0 20 20"><path d="M5.312 4.566C4.19 5.686-.715 12.68 3.522 16.918c4.237 4.238 11.23-.668 12.355-1.79 1.12-1.118-.335-4.394-3.252-7.31-2.92-2.92-6.19-4.377-7.313-3.252zm9.264 9.59c-.332.328-2.895-.457-5.364-2.928-2.467-2.47-3.256-5.033-2.924-5.363.328-.332 2.894.457 5.36 2.926 2.47 2.468 3.258 5.034 2.928 5.366zm.858-8.174l1.904-1.906c.39-.39.39-1.023 0-1.414-.39-.39-1.023-.39-1.414 0L14.02 4.568c-.39.39-.39 1.024 0 1.414.39.39 1.023.39 1.414 0zM11.124 3.8c.483.268 1.09.095 1.36-.388l1.087-1.926c.27-.483.096-1.09-.387-1.36-.482-.27-1.09-.095-1.36.388L10.736 2.44c-.268.484-.094 1.093.388 1.36zm8.748 3.016c-.267-.483-.877-.657-1.36-.388l-1.94 1.06c-.483.27-.657.88-.388 1.36.268.484.877.658 1.36.39l1.94-1.062c.483-.27.657-.877.388-1.36z"/></svg>