<svg xmlns="http://www.w3.org/2000/svg" viewBox="0 0 20 20"><path d="M14.2 9.194c1.39 1.883 1.82 3.517 1.56 3.777-.26.26-1.893-.17-3.778-1.558L6.456 16.94c4.186 1.837 9.627-2.02 10.605-2.997.926-.922.098-3.31-1.855-5.754L14.2 9.193zM8.668 7.94c-1.1-1.657-1.43-3.022-1.194-3.26.233-.233 1.6.097 3.257 1.198l1.023-1.025C9.49 3.18 7.358 2.52 6.496 3.383c-.928.927-4.448 5.878-3.23 9.958l5.4-5.4zM18.52 1.48c-.39-.39-1.022-.39-1.413 0l-15.63 15.63c-.39.39-.39 1.024 0 1.414.392.39 1.024.39 1.415 0l15.63-15.63c.39-.39.39-1.024 0-1.414z"/></svg>