<svg xmlns="http://www.w3.org/2000/svg" viewBox="0 0 20 20"><path d="M6 13.5l4 2.5 4-2.5V5H6v8.5zM4.5 10c0-1.105-.896-2-2-2s-2 .895-2 2 .896 2 2 2 2-.895 2-2zm13-2c-1.104 0-2 .895-2 2s.896 2 2 2 2-.895 2-2-.896-2-2-2zM4.485 6.2C5.74 4.383 7.802 3.3 10 3.3c2.158 0 4.198 1.056 5.456 2.823.45.63 1.323.776 1.952.33.63-.45.777-1.324.33-1.954C15.954 1.994 13.06.5 10 .5 6.883.5 3.96 2.035 2.183 4.607c-.44.636-.28 1.508.355 1.948.637.438 1.508.28 1.947-.356zm10.97 7.677C14.2 15.645 12.16 16.7 10 16.7c-2.198 0-4.26-1.084-5.515-2.9-.44-.635-1.31-.793-1.947-.355-.636.44-.795 1.312-.355 1.948C3.96 17.965 6.883 19.5 10 19.5c3.062 0 5.955-1.495 7.737-4 .448-.63.3-1.503-.33-1.952-.628-.447-1.502-.3-1.95.33z"/></svg>