<svg xmlns="http://www.w3.org/2000/svg" viewBox="0 0 20 20"><path d="M7.376 6.745c-.447.275 1.197 4.242 1.598 4.888.35.57 1.093.742 1.658.394.568-.352.745-1.094.395-1.66-.397-.648-3.205-3.898-3.65-3.622zM7.04 2.402C7.97 2.08 8.964 1.9 10 1.9s2.03.18 2.96.502c.328.114.764-.115.57-.61-.14-.36-.276-.713-.33-.856-.132-.34-.6-.62-.805-.665C11.623.098 10.823 0 10 0S8.377.097 7.604.27C7.4.318 6.932.598 6.8.937c-.054.143-.19.495-.33.855-.194.497.242.727.57.612zm12.058.784c-.192-.23-.396-.455-.613-.672-.216-.217-.44-.42-.67-.613-.153-.128-.603-.233-.888.052L15.28 3.6c.4.287.792.604 1.154.965.362.36.677.752.966 1.155l1.647-1.647c.286-.286.18-.735.05-.887zM10 2.9c-4.475 0-8.1 3.626-8.1 8.1 0 4.475 3.625 8.1 8.1 8.1 4.473 0 8.1-3.625 8.1-8.1 0-4.473-3.627-8.1-8.1-8.1zm0 14.2c-3.368 0-6.1-2.73-6.1-6.1 0-3.368 2.73-6.1 6.1-6.1 3.37 0 6.1 2.732 6.1 6.1 0 3.37-2.73 6.1-6.1 6.1z"/></svg>