<svg xmlns="http://www.w3.org/2000/svg" viewBox="0 0 20 20"><path d="M15.213 6.64c-.276 0-.546.024-.81.067C13.75 4.562 11.716 3 9.31 3 6.37 3 3.99 5.328 3.99 8.2c0 .257.02.51.056.755-.142-.016-.284-.027-.43-.027C1.62 8.928 0 10.512 0 12.463 0 14.416 1.62 16 3.617 16h11.596C17.856 16 20 13.904 20 11.32c0-2.586-2.144-4.68-4.787-4.68zm-3.842 4.31c-.493.704-2.613 2.89-2.703 2.98-.104.13-.39.345-.663.167-.08-.05-.172-.152-.172-.354 0-.193.088-.39.098-.412l1.033-2.286c-.193-.078-.527-.21-.785-.324l-.068-.03c-.262-.11-.588-.25-.588-.606 0-.172.08-.373.25-.61.494-.704 2.613-2.888 2.704-2.98.103-.128.39-.343.663-.167.077.05.17.154.17.354 0 .194-.088.392-.098.415L10.178 9.38c.195.078.528.213.787.324l.068.03c.262.11.588.25.588.608 0 .172-.08.37-.25.61z"/></svg>