<svg xmlns="http://www.w3.org/2000/svg" viewBox="0 0 20 20"><path d="M4.906 11.54l3.55 3.554 6.52-6.518-3.554-3.55-6.516 6.515zm14.198-4.876l-1.51-1.512c-.29.156-.62.246-.97.246-1.118 0-2.024-.906-2.024-2.023 0-.352.09-.682.246-.97l-1.51-1.51C12.94.5 12.295.5 11.902.894L.893 11.904c-.393.39-.393 1.036 0 1.43l1.512 1.51c.29-.155.618-.245.97-.245 1.117 0 2.023.906 2.023 2.025 0 .35-.09.68-.246.97l1.512 1.51c.394.393 1.037.393 1.432 0l11.008-11.01c.394-.394.394-1.038 0-1.43zM8.457 16.72L3.28 11.54l8.143-8.14L16.6 8.576 8.456 16.72z"/></svg>