<svg xmlns="http://www.w3.org/2000/svg" viewBox="0 0 20 20"><path d="M3.135 6.89c.933-.725 1.707-.225 2.74.97.116.136.272-.022.36-.1.09-.077 1.452-1.304 1.52-1.36.065-.06.145-.17.04-.292-.107-.123-.494-.625-.743-.95-1.808-2.366 4.946-3.97 3.91-3.995-.53-.014-2.647-.04-2.964-.004-1.283.134-2.894 1.333-3.705 1.892-1.06.726-1.457 1.152-1.522 1.21-.3.263-.047.868-.59 1.345-.576.503-.935.122-1.268.414-.165.147-.627.493-.76.608-.132.117-.156.314-.02.47 0 0 1.264 1.397 1.37 1.52.105.123.39.23.567.072.176-.156.63-.553.707-.623.078-.066-.05-.86.358-1.177zm5.708.517c-.12-.14-.27-.143-.397-.03L7.012 8.63c-.113.1-.13.283-.027.4l8.294 9.44c.193.222.53.245.75.052l.97-.813c.222-.196.245-.534.052-.76l-8.21-9.543zm11.06-4.017c-.075-.494-.33-.39-.464-.182-.134.21-.722 1.102-.964 1.506-.24.4-.832 1.19-1.934.41-1.148-.81-.75-1.377-.55-1.758.202-.383.82-1.457.908-1.59.09-.135-.015-.527-.37-.363-.358.164-2.524 1.025-2.824 2.26-.307 1.256.257 2.38-.85 3.494l-1.343 1.4 1.35 1.566 1.653-1.57c.394-.396 1.236-.78 1.998-.607 1.633.37 2.524-.244 3.06-1.258.483-.906.403-2.814.328-3.308zM2.738 17.053c-.21.21-.21.55 0 .758l.95.93c.208.21.538.122.746-.087l4.907-4.824-1.503-1.715-5.1 4.938z"/></svg>