<svg xmlns="http://www.w3.org/2000/svg" viewBox="0 0 20 20"><path d="M20 10c0-1.36-.758-2.616-2.03-3.622-.003 0-.005 0-.006-.003C17.602 2.803 14.177 0 10 0S2.398 2.803 2.036 6.375c0 .002-.003.002-.005.003C.76 7.384 0 8.638 0 10c0 3.112 3.947 5.67 9 5.97V17c0 1-1.82 1.91-1.82 1.91-.1.05-.15.174-.11.278 0 0 .305.812.93.812s1.124-.5 2.374-.5 2.44.432 2.44.432c.1.038.25.005.328-.073l.717-.718c.077-.078.057-.173-.047-.212 0 0-1.812-.68-1.812-1.93v-1.12c4.565-.556 8-2.977 8-5.88zM2 10c0-1.02.768-1.945 2.022-2.65C4.012 7.232 4 7.116 4 7c0-2.762 2.687-5 6-5s6 2.238 6 5c0 .117-.012.233-.02.35C17.23 8.054 18 8.98 18 10c0 1.864-2.55 3.424-6 3.87v-.67c0-.11.066-.26.146-.336l1.833-1.726c.08-.076.145-.227.145-.337v-.85c0-.11-.078-.155-.172-.1l-1.78 1.048c-.095.056-.172.012-.172-.1V7.2c0-.11-.084-.172-.19-.137l-2.62.874C9.086 7.972 9 8.09 9 8.2v2.6c0 .11-.078.158-.176.107L6.802 9.843c-.097-.05-.24-.03-.318.048l-.342.343c-.078.078-.073.2.01.273l2.7 2.36c.082.074.15.223.15.333v.764C5.055 13.72 2 12.04 2 10z"/></svg>