<svg xmlns="http://www.w3.org/2000/svg" viewBox="0 0 20 20"><path d="M19.06 10.898L15.887 2.97c-.234-.586-.802-.97-1.434-.97H5.546c-.632 0-1.2.384-1.434.97L.942 10.9c-.29.72-.374 1.507-.247 2.272l.59 3.54c.124.744.768 1.29 1.523 1.29H17.19c.756 0 1.4-.546 1.524-1.29l.59-3.54c.13-.765.044-1.55-.245-2.272zM5.52 4.786l1.64-1.132 2.867 2.01 2.868-2.01 1.64 1.132-2.87 2.033 2.928 2.06-1.64 1.17-2.926-2.076L7.1 10.05 5.46 8.88l2.93-2.06-2.87-2.034zm11.44 10.46c-.073.435-.45.754-.892.754H3.932c-.442 0-.82-.32-.89-.755l-.366-2.193c-.093-.55.332-1.052.89-1.052h12.868c.558 0 .983.5.89 1.052l-.365 2.193z"/></svg>