<svg xmlns="http://www.w3.org/2000/svg" viewBox="0 0 20 20"><path d="M19 3H1c-.553 0-1 .447-1 1v12c0 .552.447 1 1 1h18c.553 0 1-.448 1-1V4c0-.552-.447-1-1-1zm-6 4h4v1h-4V7zm-2 7.803c-.13-.102-.293-.2-.53-.303-1.18-.508-2.96-1.26-2.96-2.176 0-.55.36-.37.518-1.38.066-.417.385-.006.445-.96 0-.38-.174-.475-.174-.475s.087-.563.122-.997c.036-.453-.22-1.8-1.277-2.097-.186-.188-.31-.11.258-.412-1.244-.06-1.534.592-2.196 1.07-.564.42-.717 1.086-.69 1.44.038.433.126.996.126.996s-.175.094-.175.474c.06.954.38.543.445.96.158 1.01.52.83.52 1.38 0 .916-1.782 1.668-2.962 2.176-.202.088-.348.173-.47.26V5h9v9.803zM18 11h-5v-1h5v1z"/></svg>