<svg xmlns="http://www.w3.org/2000/svg" viewBox="0 0 20 20"><path d="M15.4 5.8c-2.54 0-4.6 2.06-4.6 4.6 0 .966.297 1.86.805 2.6h-3.21c.507-.74.804-1.634.804-2.6 0-2.54-2.06-4.6-4.6-4.6C2.06 5.8 0 7.86 0 10.4 0 12.94 2.06 15 4.6 15h10.8c2.54 0 4.6-2.06 4.6-4.6 0-2.54-2.06-4.6-4.6-4.6zM2 10.4c0-1.436 1.164-2.6 2.6-2.6 1.436 0 2.6 1.164 2.6 2.6 0 1.436-1.164 2.6-2.6 2.6C3.164 13 2 11.836 2 10.4zM15.4 13c-1.437 0-2.6-1.164-2.6-2.6 0-1.436 1.163-2.6 2.6-2.6 1.435 0 2.6 1.164 2.6 2.6 0 1.436-1.164 2.6-2.6 2.6z"/></svg>