<svg xmlns="http://www.w3.org/2000/svg" viewBox="0 0 20 20"><path d="M9.882 9.093c-.51 4.115-3.12 4.847-3.12 7.708C6.76 18.568 8.243 20 10 20s3.238-1.434 3.238-3.2c0-2.86-2.61-3.592-3.12-7.707-.017-.123-.22-.123-.236 0zm-6-9C3.373 4.208.763 4.94.763 7.8.762 9.567 2.244 11 4 11s3.238-1.434 3.238-3.2c0-2.86-2.61-3.592-3.12-7.707-.016-.123-.22-.123-.235 0zm12 0c-.51 4.115-3.12 4.847-3.12 7.708 0 1.766 1.482 3.2 3.238 3.2s3.238-1.434 3.238-3.2c0-2.86-2.61-3.592-3.12-7.707-.017-.123-.22-.123-.235 0z"/></svg>